<svg xmlns="http://www.w3.org/2000/svg" xmlns:xlink="http://www.w3.org/1999/xlink" width="1920" zoomAndPan="magnify" viewBox="0 0 1440 809.999993" height="1080" preserveAspectRatio="xMidYMid meet" version="1.0"><path fill="#0f2149" d="M 341.824219 626.371094 L 300.25 626.371094 L 300.25 512.308594 L 341.824219 512.308594 C 378.605469 511.84375 402.257812 536.109375 401.945312 569.339844 C 402.257812 602.570312 378.605469 626.835938 341.824219 626.371094 Z M 341.824219 531.933594 L 322.039062 531.933594 L 322.039062 606.742188 L 341.824219 606.742188 C 366.398438 606.742188 380.152344 592.835938 380.152344 569.339844 C 380.152344 545.847656 366.398438 531.933594 341.824219 531.933594 Z M 502.425781 543.21875 L 502.425781 626.371094 L 481.253906 626.371094 L 481.253906 614.625 C 475.6875 623.742188 465.796875 628.535156 454.203125 628.535156 C 431.019531 628.535156 413.710938 609.371094 413.710938 584.796875 C 413.398438 560.53125 431.175781 540.59375 454.203125 541.054688 C 465.796875 541.054688 475.6875 545.691406 481.253906 554.808594 L 481.253906 543.21875 Z M 457.601562 559.449219 C 450.648438 559.449219 444.929688 561.917969 440.449219 566.710938 C 436.121094 571.5 433.957031 577.53125 433.957031 584.792969 C 433.957031 599.167969 443.539062 610.144531 457.601562 610.144531 C 471.359375 610.144531 481.253906 600.09375 481.253906 584.792969 C 481.253906 569.492188 471.359375 559.449219 457.601562 559.449219 Z M 582.828125 623.4375 C 578.035156 626.523438 570 628.535156 562.425781 628.535156 C 541.871094 628.535156 531.050781 616.789062 531.050781 593.914062 L 531.050781 561.613281 L 513.277344 561.613281 L 513.277344 543.21875 L 531.050781 543.21875 L 531.050781 521.113281 L 552.070312 521.113281 L 552.070312 543.21875 L 579.738281 543.21875 L 579.738281 561.613281 L 552.070312 561.613281 L 552.070312 593.757812 C 552.070312 604.269531 556.554688 609.832031 565.207031 609.832031 C 569.84375 609.832031 574.171875 608.753906 578.191406 606.585938 Z M 676.257812 543.21875 L 676.257812 626.371094 L 655.085938 626.371094 L 655.085938 614.625 C 649.519531 623.742188 639.628906 628.535156 628.035156 628.535156 C 604.851562 628.535156 587.542969 609.371094 587.542969 584.796875 C 587.234375 560.53125 605.007812 540.59375 628.035156 541.054688 C 639.628906 541.054688 649.519531 545.691406 655.085938 554.808594 L 655.085938 543.21875 Z M 631.4375 559.449219 C 624.480469 559.449219 618.761719 561.917969 614.28125 566.710938 C 609.953125 571.5 607.789062 577.53125 607.789062 584.792969 C 607.789062 599.167969 617.371094 610.144531 631.4375 610.144531 C 645.191406 610.144531 655.085938 600.09375 655.085938 584.792969 C 655.085938 569.492188 645.191406 559.449219 631.4375 559.449219 Z M 631.4375 559.449219 " fill-opacity="1" fill-rule="nonzero"/><path fill="#304ffe" d="M 752.117188 510.140625 C 774.371094 510.140625 792.457031 520.496094 802.347656 536.109375 L 783.800781 546.617188 C 777.15625 536.570312 766.183594 530.390625 752.117188 530.390625 C 729.707031 530.390625 714.40625 547.234375 714.40625 569.339844 C 714.40625 591.441406 730.632812 608.441406 753.355469 608.441406 C 765.875 608.441406 777 605.042969 783.183594 599.476562 L 783.183594 581.242188 L 751.808594 581.242188 L 751.808594 563.003906 L 803.277344 563.003906 L 803.277344 609.214844 C 798.796875 614.777344 791.839844 619.414062 782.566406 622.972656 C 773.445312 626.679688 763.710938 628.535156 753.355469 628.535156 C 719.199219 629.152344 691.996094 602.570312 692.613281 569.339844 C 691.996094 535.796875 718.269531 509.523438 752.117188 510.140625 Z M 838.546875 592.058594 C 841.175781 603.960938 850.757812 610.449219 863.585938 610.449219 C 872.703125 610.449219 881.050781 606.433594 885.226562 600.09375 L 901.453125 610.296875 C 894.191406 621.269531 879.660156 628.535156 863.589844 628.535156 C 836.851562 628.535156 817.992188 609.675781 817.992188 584.792969 C 817.992188 559.910156 836.386719 541.054688 860.960938 541.054688 C 885.6875 541.054688 903.925781 558.210938 903.925781 582.785156 C 903.925781 585.410156 903.773438 588.503906 903.617188 592.058594 Z M 883.679688 577.222656 C 882.597656 566.09375 873.941406 558.675781 861.113281 558.675781 C 849.988281 558.675781 841.019531 565.476562 838.550781 577.222656 Z M 1000.769531 626.371094 L 979.597656 626.371094 L 979.597656 580.929688 C 979.597656 566.710938 973.105469 559.449219 960.894531 559.449219 C 948.6875 559.449219 939.722656 568.875 939.722656 582.941406 L 939.722656 626.371094 L 918.703125 626.371094 L 918.703125 543.21875 L 939.722656 543.21875 L 939.722656 555.121094 C 944.515625 546.617188 954.097656 541.054688 965.84375 541.054688 C 987.480469 541.054688 1000.773438 555.121094 1000.773438 579.382812 L 1000.773438 626.371094 Z M 1000.769531 626.371094 " fill-opacity="1" fill-rule="nonzero"/><path fill="#edaf28" d="M 1029.039062 507.050781 C 1036.457031 507.050781 1042.175781 512.617188 1042.175781 519.570312 C 1042.175781 526.832031 1036.613281 532.089844 1029.039062 532.089844 C 1021.464844 532.089844 1015.902344 526.832031 1015.902344 519.570312 C 1015.902344 512.617188 1021.46875 507.050781 1029.039062 507.050781 Z M 1029.039062 507.050781 " fill-opacity="1" fill-rule="nonzero"/><path fill="#304ffe" d="M 1018.53125 543.21875 L 1039.550781 543.21875 L 1039.550781 626.371094 L 1018.53125 626.371094 Z M 1074.121094 592.058594 C 1076.75 603.960938 1086.332031 610.449219 1099.160156 610.449219 C 1108.277344 610.449219 1116.625 606.433594 1120.800781 600.09375 L 1137.027344 610.296875 C 1129.765625 621.269531 1115.234375 628.535156 1099.160156 628.535156 C 1072.421875 628.535156 1053.566406 609.675781 1053.566406 584.792969 C 1053.566406 559.910156 1071.960938 541.054688 1096.535156 541.054688 C 1121.261719 541.054688 1139.5 558.210938 1139.5 582.785156 C 1139.5 585.410156 1139.347656 588.503906 1139.191406 592.058594 Z M 1119.253906 577.222656 C 1118.171875 566.09375 1109.515625 558.675781 1096.6875 558.675781 C 1085.5625 558.675781 1076.597656 565.476562 1074.121094 577.222656 Z M 1119.253906 577.222656 " fill-opacity="1" fill-rule="nonzero"/><path fill="#304ffe" d="M 757.011719 413.417969 L 656.164062 413.417969 C 649.023438 413.417969 643.234375 419.207031 643.234375 426.347656 C 643.234375 433.488281 649.023438 439.277344 656.164062 439.277344 L 757.011719 439.277344 C 764.152344 439.277344 769.941406 433.488281 769.941406 426.347656 C 769.941406 419.207031 764.152344 413.417969 757.011719 413.417969 Z M 890.894531 164.457031 C 869.507812 164.457031 852.105469 181.859375 852.105469 203.246094 C 852.105469 208.074219 853.03125 212.679688 854.652344 216.949219 L 826.984375 240.328125 C 821.234375 236.957031 814.570312 234.988281 807.4375 234.988281 C 797.941406 234.988281 789.246094 238.425781 782.496094 244.109375 L 742.769531 220.746094 C 743.234375 218.351562 743.496094 215.886719 743.496094 213.359375 C 743.496094 191.96875 726.09375 174.570312 704.703125 174.570312 C 683.316406 174.570312 665.914062 191.96875 665.914062 213.359375 C 665.914062 216.109375 666.210938 218.789062 666.757812 221.375 L 630.191406 243.699219 C 623.515625 238.261719 615.003906 234.988281 605.742188 234.988281 C 588.832031 234.988281 574.453125 245.882812 569.15625 261.007812 C 536.203125 263.207031 510.0625 290.703125 510.0625 324.203125 C 510.0625 359.136719 538.480469 387.558594 573.414062 387.558594 C 574.265625 387.558594 575.105469 387.476562 575.9375 387.308594 C 576.769531 387.144531 577.578125 386.898438 578.363281 386.574219 C 579.148438 386.25 579.894531 385.851562 580.597656 385.378906 C 581.304688 384.90625 581.957031 384.371094 582.558594 383.769531 C 583.160156 383.171875 583.695312 382.515625 584.167969 381.8125 C 584.636719 381.105469 585.035156 380.359375 585.359375 379.574219 C 585.6875 378.792969 585.929688 377.984375 586.097656 377.148438 C 586.261719 376.316406 586.34375 375.476562 586.34375 374.628906 C 586.34375 373.777344 586.261719 372.9375 586.097656 372.105469 C 585.929688 371.273438 585.6875 370.464844 585.359375 369.679688 C 585.035156 368.894531 584.636719 368.148438 584.167969 367.445312 C 583.695312 366.738281 583.160156 366.085938 582.558594 365.484375 C 581.957031 364.882812 581.304688 364.347656 580.597656 363.878906 C 579.894531 363.40625 579.148438 363.007812 578.363281 362.683594 C 577.578125 362.355469 576.769531 362.113281 575.9375 361.945312 C 575.105469 361.78125 574.265625 361.699219 573.414062 361.699219 C 552.742188 361.699219 535.921875 344.878906 535.921875 324.203125 C 535.921875 304.921875 550.558594 289.003906 569.300781 286.945312 C 574.015625 299.953125 585.472656 309.714844 599.445312 312.011719 C 615.1875 355.996094 657.261719 387.558594 706.589844 387.558594 C 755.914062 387.558594 797.980469 355.996094 813.71875 312.015625 C 832.125 308.996094 846.226562 293.023438 846.226562 273.777344 C 846.226562 268.949219 845.300781 264.34375 843.683594 260.078125 L 871.351562 236.695312 C 877.097656 240.070312 883.765625 242.039062 890.898438 242.039062 C 912.289062 242.039062 929.691406 224.636719 929.691406 203.246094 C 929.691406 181.855469 912.285156 164.457031 890.894531 164.457031 Z M 704.703125 200.429688 C 711.832031 200.429688 717.632812 206.226562 717.632812 213.359375 C 717.632812 220.488281 711.832031 226.289062 704.703125 226.289062 C 697.574219 226.289062 691.773438 220.488281 691.773438 213.359375 C 691.773438 206.230469 697.574219 200.429688 704.703125 200.429688 Z M 605.738281 260.847656 C 612.871094 260.847656 618.671875 266.648438 618.671875 273.777344 C 618.671875 280.90625 612.871094 286.707031 605.738281 286.707031 C 598.609375 286.707031 592.808594 280.90625 592.808594 273.777344 C 592.808594 266.648438 598.609375 260.847656 605.738281 260.847656 Z M 706.585938 361.695312 C 669.941406 361.695312 638.511719 339.140625 625.335938 307.199219 C 636.800781 300.449219 644.53125 288.015625 644.53125 273.777344 C 644.53125 271.03125 644.234375 268.351562 643.6875 265.761719 L 680.25 243.4375 C 686.929688 248.875 695.441406 252.152344 704.703125 252.152344 C 714.195312 252.152344 722.894531 248.710938 729.644531 243.027344 L 769.371094 266.390625 C 768.890625 268.832031 768.648438 271.292969 768.644531 273.777344 C 768.644531 288.015625 776.375 300.449219 787.839844 307.199219 C 774.664062 339.140625 743.234375 361.695312 706.585938 361.695312 Z M 807.4375 286.707031 C 800.304688 286.707031 794.507812 280.90625 794.507812 273.777344 C 794.507812 266.648438 800.308594 260.847656 807.4375 260.847656 C 814.5625 260.847656 820.367188 266.648438 820.367188 273.777344 C 820.367188 280.90625 814.5625 286.707031 807.4375 286.707031 Z M 890.894531 216.175781 C 883.765625 216.175781 877.964844 210.375 877.964844 203.246094 C 877.964844 196.117188 883.765625 190.316406 890.894531 190.316406 C 898.027344 190.316406 903.824219 196.117188 903.824219 203.246094 C 903.828125 210.375 898.027344 216.175781 890.894531 216.175781 Z M 890.894531 216.175781 " fill-opacity="1" fill-rule="nonzero"/><path fill="#edaf28" d="M 903.828125 203.246094 C 903.828125 196.117188 898.027344 190.316406 890.898438 190.316406 C 883.765625 190.316406 877.964844 196.117188 877.964844 203.246094 C 877.964844 210.375 883.765625 216.175781 890.898438 216.175781 C 898.027344 216.175781 903.828125 210.375 903.828125 203.246094 Z M 903.828125 203.246094 " fill-opacity="1" fill-rule="nonzero"/></svg>