<svg xmlns="http://www.w3.org/2000/svg" xmlns:xlink="http://www.w3.org/1999/xlink" width="1920" zoomAndPan="magnify" viewBox="0 0 1440 809.999993" height="1080" preserveAspectRatio="xMidYMid meet" version="1.0"><path fill="#000000" d="M 737.941406 345.285156 L 785.207031 345.285156 C 785.476562 348.917969 785.75 352.347656 786.085938 356.949219 C 795.847656 345.714844 808.085938 344.835938 820.933594 344.949219 C 852.917969 345.21875 884.898438 345.015625 916.90625 345.039062 C 955.742188 345.058594 980.21875 369.582031 980.21875 408.363281 L 980.21875 545.125 L 933.136719 545.125 L 933.136719 537.453125 C 933.136719 498.582031 933.15625 459.734375 933.136719 420.863281 C 933.136719 399.09375 921.867188 387.855469 900.113281 387.855469 C 872.546875 387.835938 844.960938 387.8125 817.394531 387.855469 C 797.289062 387.878906 785.75 399.429688 785.726562 419.507812 C 785.703125 458.582031 785.726562 497.679688 785.726562 536.753906 L 785.726562 545.078125 L 737.988281 545.078125 C 737.941406 478.664062 737.941406 412.335938 737.941406 345.285156 Z M 177.132812 345.445312 L 224.488281 345.445312 C 224.644531 349.074219 224.804688 352.324219 225.007812 356.542969 C 227.460938 354.445312 229.378906 352.664062 232.308594 351.175781 C 235.238281 349.664062 238.28125 348.445312 241.4375 347.472656 C 250.996094 344.585938 260.84375 345.171875 270.695312 345.082031 C 281.21875 344.96875 291.746094 344.925781 302.273438 344.925781 C 321.316406 344.902344 340.386719 345.015625 359.433594 345.105469 C 394.144531 345.285156 419.34375 370.914062 419.367188 405.816406 C 419.410156 449.964844 419.386719 494.117188 419.367188 538.265625 C 419.367188 540.433594 419.183594 542.574219 419.050781 545.554688 C 404.21875 545.554688 389.726562 545.621094 375.253906 545.394531 C 374.242188 545.375 372.753906 543.386719 372.371094 542.058594 C 371.851562 540.207031 372.167969 538.109375 372.167969 536.125 C 372.167969 497.5 372.191406 458.855469 372.144531 420.230469 C 372.121094 399.386719 360.605469 387.878906 339.847656 387.878906 C 312.054688 387.878906 284.261719 387.855469 256.472656 387.902344 C 236.320312 387.949219 224.78125 399.476562 224.78125 419.488281 C 224.757812 458.785156 224.78125 498.0625 224.757812 537.363281 L 224.757812 545.058594 L 177.15625 545.058594 C 177.132812 478.773438 177.132812 412.449219 177.132812 345.445312 Z M 1359 545.53125 C 1338.128906 545.53125 1319.398438 545.667969 1300.691406 545.351562 C 1298.527344 545.304688 1296.023438 543.183594 1294.289062 541.425781 C 1274.566406 521.503906 1254.957031 501.492188 1235.390625 481.414062 C 1233.882812 479.859375 1233.003906 477.648438 1232.214844 476.382812 C 1217.722656 490.4375 1204.511719 503.074219 1191.507812 515.910156 C 1183.03125 524.277344 1175.007812 533.121094 1166.351562 541.289062 C 1163.941406 543.566406 1159.972656 545.304688 1156.683594 545.375 C 1139.058594 545.777344 1121.429688 545.554688 1101.664062 545.554688 C 1118.929688 527.980469 1134.976562 511.601562 1151.070312 495.242188 C 1167.277344 478.753906 1183.507812 462.285156 1200.074219 445.453125 C 1167.414062 412.199219 1135.226562 379.351562 1102.09375 345.554688 C 1105.136719 345.285156 1106.78125 345.039062 1108.402344 345.039062 C 1124.070312 345.015625 1139.734375 344.765625 1155.398438 345.21875 C 1158.890625 345.308594 1163.175781 346.976562 1165.632812 349.414062 C 1185.242188 368.816406 1204.511719 388.535156 1223.828125 408.230469 C 1225.8125 410.257812 1227.34375 412.742188 1229.214844 415.199219 C 1235.550781 409.0625 1240.824219 404.121094 1245.894531 398.980469 C 1262.328125 382.328125 1278.601562 365.523438 1295.210938 349.054688 C 1297.398438 346.886719 1301.1875 345.261719 1304.25 345.195312 C 1321.808594 344.835938 1339.390625 345.015625 1359 345.015625 C 1325.527344 379.171875 1293.386719 411.996094 1260.613281 445.453125 C 1293.070312 478.480469 1325.304688 511.261719 1359 545.53125 Z M 593.597656 388.058594 L 524.308594 388.058594 L 524.308594 545.148438 L 476.480469 545.148438 L 476.480469 388.058594 C 468.34375 388.058594 460.703125 387.609375 453.152344 388.195312 C 445.804688 388.757812 441.816406 386.773438 439.335938 379.125 C 435.074219 365.972656 427.75 354.398438 414.769531 344.878906 L 476.550781 344.878906 C 476.550781 337.570312 476.820312 331.230469 476.503906 324.914062 C 474.65625 288.164062 495.121094 270.070312 525.503906 266.84375 C 547.660156 264.476562 570.269531 266.371094 593.125 266.371094 L 593.125 307.046875 C 586.972656 307.046875 580.886719 306.957031 574.777344 307.070312 C 562.671875 307.292969 550.523438 307.226562 538.441406 308.082031 C 528.910156 308.761719 524.695312 313.632812 524.039062 323.042969 C 523.679688 328.320312 523.792969 333.621094 523.746094 338.921875 C 523.722656 340.617188 523.882812 342.308594 523.972656 344 C 523.972656 344.066406 523.972656 344.15625 524.039062 344.203125 C 524.085938 344.269531 524.175781 344.269531 524.265625 344.269531 C 526.542969 344.382812 528.820312 344.5625 531.074219 344.5625 C 549.601562 344.585938 568.128906 344.789062 586.632812 344.449219 C 592.222656 344.359375 593.824219 346.234375 593.664062 351.625 C 593.371094 363.492188 593.597656 375.382812 593.597656 388.058594 Z M 127.859375 545.261719 L 81 545.261719 L 81 287.554688 L 127.859375 287.554688 Z M 1024.039062 345.285156 L 1071.257812 345.285156 L 1071.257812 545.058594 L 1024.039062 545.058594 Z M 682.5625 545.28125 L 635.542969 545.28125 L 635.542969 344.675781 C 650.21875 344.675781 664.6875 344.585938 679.15625 344.835938 C 680.308594 344.855469 681.816406 347.089844 682.449219 348.601562 C 683.011719 349.910156 682.5625 351.648438 682.5625 353.183594 Z M 635.320312 306.4375 L 635.320312 265.941406 L 683.710938 265.941406 L 683.710938 306.4375 Z M 1070.738281 265.761719 L 1070.738281 306.59375 L 1022.84375 306.59375 L 1022.84375 265.761719 Z M 1070.738281 265.761719 " fill-opacity="1" fill-rule="nonzero"/></svg>