<svg xmlns="http://www.w3.org/2000/svg" xmlns:xlink="http://www.w3.org/1999/xlink" width="1920" zoomAndPan="magnify" viewBox="0 0 1440 809.999993" height="1080" preserveAspectRatio="xMidYMid meet" version="1.0"><defs><clipPath id="4bc42fea51"><path d="M 43.835938 299.347656 L 600 299.347656 L 600 454 L 43.835938 454 Z M 43.835938 299.347656 " clip-rule="nonzero"/></clipPath><clipPath id="2360cbf9f6"><path d="M 286 299.347656 L 1396.171875 299.347656 L 1396.171875 509.488281 L 286 509.488281 Z M 286 299.347656 " clip-rule="nonzero"/></clipPath></defs><g clip-path="url(#4bc42fea51)"><path fill="#00237c" d="M 212.765625 299.703125 C 193.664062 299.703125 178.25 306.195312 166.855469 323.898438 C 159.5 308.121094 143.542969 299.703125 123.75 299.703125 C 107.800781 299.703125 89.222656 307.421875 81.335938 321.625 L 81.335938 306.371094 C 81.335938 304.976562 80.109375 303.75 78.707031 303.75 L 46.464844 303.75 C 45.058594 303.730469 43.835938 304.957031 43.835938 306.355469 L 43.835938 446.332031 C 43.835938 447.738281 45.058594 448.957031 46.464844 448.957031 L 80.457031 448.957031 C 81.859375 448.957031 83.085938 447.738281 83.085938 446.332031 L 83.085938 363.898438 C 83.085938 347.933594 93.078125 335.304688 110.25 335.304688 C 127.949219 335.304688 135.835938 347.0625 135.835938 362.671875 L 135.835938 446.164062 C 135.835938 447.570312 137.0625 448.785156 138.464844 448.785156 L 172.105469 448.785156 C 173.515625 448.785156 174.742188 447.570312 174.742188 446.164062 L 174.742188 363.722656 C 174.742188 348.113281 184.730469 335.125 201.550781 335.125 C 219.605469 335.125 227.136719 346.886719 227.136719 362.496094 L 227.136719 445.996094 C 227.136719 447.390625 228.359375 448.617188 229.765625 448.617188 L 262.53125 448.617188 C 263.9375 448.617188 265.160156 447.390625 265.160156 445.996094 L 265.160156 354.769531 C 265.339844 315.828125 239.578125 299.695312 212.765625 299.695312 Z M 362.773438 421.960938 C 343.671875 421.960938 325.441406 429.675781 318.960938 440.378906 C 331.230469 448.796875 346.125 453.355469 362.773438 453.355469 C 379.25 453.355469 394.316406 448.617188 406.582031 440.378906 C 400.097656 429.675781 381.175781 421.960938 362.773438 421.960938 Z M 528.378906 299.347656 C 491.230469 299.347656 457.058594 329.519531 457.058594 375.828125 C 457.058594 424.761719 492.101562 453.355469 531.882812 453.355469 C 565.355469 453.355469 587.785156 434.761719 596.375 411.78125 C 596.898438 410.378906 596.195312 408.804688 594.617188 408.28125 L 566.234375 400.734375 C 565 400.386719 563.78125 400.902344 563.25 402.136719 C 557.992188 412.664062 548.179688 419.855469 532.0625 419.855469 C 512.605469 419.855469 496.308594 405.996094 495.429688 386.875 L 596.722656 386.875 C 598.125 386.875 599.171875 385.828125 599.347656 384.421875 C 599.519531 382.140625 599.703125 378.28125 599.703125 374.777344 C 600.050781 327.945312 573.242188 299.347656 528.378906 299.347656 Z M 496.488281 359.863281 C 497.359375 346.53125 508.574219 331.269531 528.902344 331.269531 C 548.179688 331.269531 560.800781 345.480469 561.324219 359.863281 Z M 496.488281 359.863281 " fill-opacity="1" fill-rule="nonzero"/></g><g clip-path="url(#2360cbf9f6)"><path fill="#00237c" d="M 362.773438 299.347656 C 319.492188 299.347656 286.714844 331.445312 286.714844 376.351562 C 286.714844 395.820312 293.027344 413.1875 303.710938 426.34375 C 312.476562 418.449219 325.621094 411.082031 341.042969 408.101562 C 332.457031 401.4375 326.675781 390.386719 326.675781 374.949219 C 326.675781 348.113281 343.84375 336.007812 362.597656 336.007812 C 381.34375 336.007812 398.519531 348.289062 398.519531 374.949219 C 398.519531 390.386719 392.738281 401.425781 384.320312 408.101562 C 399.746094 411.082031 412.886719 418.449219 421.652344 426.164062 C 432.34375 413.007812 438.648438 395.820312 438.648438 376.175781 C 438.828125 331.445312 406.226562 299.347656 362.773438 299.347656 Z M 1324.496094 299.347656 C 1287.351562 299.347656 1253.179688 329.519531 1253.179688 375.828125 C 1253.179688 424.761719 1288.222656 453.355469 1328.003906 453.355469 C 1361.652344 453.355469 1383.90625 434.761719 1392.496094 411.78125 C 1393.019531 410.378906 1392.140625 408.804688 1390.738281 408.28125 L 1362.347656 400.734375 C 1361.121094 400.386719 1359.894531 400.902344 1359.371094 402.136719 C 1354.113281 412.664062 1344.300781 419.855469 1328.175781 419.855469 C 1308.726562 419.855469 1292.429688 405.996094 1291.550781 386.875 L 1393.195312 386.875 C 1394.589844 386.875 1395.648438 385.828125 1395.824219 384.421875 C 1395.996094 382.140625 1396.171875 378.28125 1396.171875 374.777344 C 1396.171875 327.945312 1369.363281 299.347656 1324.496094 299.347656 Z M 1292.777344 359.863281 C 1293.65625 346.53125 1304.871094 331.269531 1325.199219 331.269531 C 1344.476562 331.269531 1357.089844 345.480469 1357.621094 359.863281 Z M 1230.738281 303.730469 L 1198.148438 303.730469 C 1196.742188 303.730469 1195.519531 304.957031 1195.519531 306.363281 L 1195.519531 320.921875 C 1190.609375 311.109375 1177.464844 301.101562 1154.339844 301.101562 C 1114.554688 301.101562 1086.867188 333.554688 1086.867188 371.96875 C 1086.867188 412.664062 1115.78125 442.476562 1154.339844 442.476562 C 1175.191406 442.476562 1188.859375 433.355469 1194.816406 423.890625 L 1194.816406 434.582031 C 1194.816406 462.652344 1180.972656 474.9375 1156.265625 474.9375 C 1138.738281 474.9375 1126.472656 464.582031 1122.964844 450.023438 C 1122.617188 448.617188 1121.214844 447.738281 1119.8125 448.09375 L 1089.328125 456.164062 C 1087.921875 456.511719 1087.222656 457.914062 1087.390625 459.140625 C 1092.648438 485.808594 1118.765625 509.308594 1157.492188 509.308594 C 1211.992188 509.308594 1233.542969 473 1233.542969 433.1875 L 1233.542969 306.371094 C 1233.367188 304.957031 1232.320312 303.730469 1230.738281 303.730469 Z M 1161.167969 408.804688 C 1140.84375 408.804688 1126.296875 394.59375 1126.296875 371.96875 C 1126.296875 349.515625 1141.542969 335.304688 1161.167969 335.304688 C 1180.09375 335.304688 1195.339844 349.515625 1195.339844 371.96875 C 1195.339844 394.421875 1181.148438 408.804688 1161.167969 408.804688 Z M 698.011719 299.875 C 682.410156 299.875 665.066406 306.71875 656.121094 321.800781 L 656.121094 306.363281 C 656.121094 304.964844 654.898438 303.738281 653.503906 303.738281 L 620.726562 303.738281 C 619.320312 303.738281 618.105469 304.964844 618.105469 306.363281 L 618.105469 446.34375 C 618.105469 447.746094 619.320312 448.964844 620.726562 448.964844 L 654.726562 448.964844 C 656.121094 448.964844 657.347656 447.746094 657.347656 446.34375 L 657.347656 365.480469 C 657.347656 348.644531 667.339844 335.304688 684.511719 335.304688 C 703.445312 335.304688 711.324219 347.933594 711.324219 364.246094 L 711.324219 446.34375 C 711.324219 447.746094 712.558594 448.964844 713.953125 448.964844 L 747.953125 448.964844 C 749.355469 448.964844 750.574219 447.746094 750.574219 446.34375 L 750.574219 357.410156 C 750.574219 325.660156 734.109375 299.882812 698.003906 299.882812 Z M 1003.808594 299.347656 C 965.605469 299.347656 944.753906 323.554688 941.769531 346.007812 C 941.59375 346.707031 942.125 347.234375 942.824219 347.410156 L 975.070312 354.253906 C 975.773438 354.425781 976.464844 353.898438 976.644531 353.195312 C 978.390625 341.097656 987.679688 330.921875 1004.15625 330.921875 C 1020.628906 330.921875 1028.691406 339.515625 1028.691406 349.871094 C 1028.691406 354.949219 1026.0625 358.984375 1017.828125 360.21875 L 982.078125 365.480469 C 957.894531 368.984375 938.792969 383.542969 938.792969 409.507812 C 938.792969 432.308594 957.71875 453.175781 988.558594 453.175781 C 1009.945312 453.175781 1023.609375 443.363281 1031.140625 431.960938 L 1031.140625 446.34375 C 1031.140625 447.746094 1032.367188 448.964844 1033.769531 448.964844 L 1064.441406 448.964844 C 1065.835938 448.964844 1067.070312 447.746094 1067.070312 446.34375 L 1067.070312 354.59375 C 1066.894531 325.3125 1049.898438 299.347656 1003.808594 299.347656 Z M 1028.691406 390.210938 C 1028.691406 415.816406 1013.441406 423.878906 996.800781 423.878906 C 984.183594 423.878906 977.867188 415.640625 977.867188 407.046875 C 977.867188 395.820312 985.753906 390.210938 995.921875 388.804688 L 1028.691406 383.722656 Z M 915.3125 303.730469 L 882.714844 303.730469 C 881.3125 303.730469 880.09375 304.957031 880.09375 306.363281 L 880.09375 320.921875 C 875.183594 311.109375 861.855469 301.101562 838.898438 301.101562 C 799.113281 301.101562 771.425781 333.554688 771.425781 371.96875 C 771.425781 412.664062 800.347656 442.476562 838.898438 442.476562 C 859.75 442.476562 873.417969 433.355469 879.382812 423.890625 L 879.382812 434.582031 C 879.382812 462.652344 865.53125 474.9375 840.824219 474.9375 C 823.304688 474.9375 811.03125 464.582031 807.523438 450.023438 C 807.1875 448.617188 805.773438 447.738281 804.371094 448.09375 L 773.886719 456.164062 C 772.480469 456.511719 771.773438 457.914062 771.957031 459.140625 C 777.214844 485.808594 803.316406 509.308594 842.050781 509.308594 C 896.550781 509.308594 918.105469 473 918.105469 433.1875 L 918.105469 306.371094 C 917.933594 304.957031 916.710938 303.730469 915.304688 303.730469 Z M 845.738281 408.804688 C 825.410156 408.804688 810.863281 394.59375 810.863281 371.96875 C 810.863281 349.515625 826.109375 335.304688 845.738281 335.304688 C 864.667969 335.304688 879.910156 349.515625 879.910156 371.96875 C 879.910156 394.421875 865.71875 408.804688 845.738281 408.804688 Z M 845.738281 408.804688 " fill-opacity="1" fill-rule="nonzero"/></g></svg>