<svg width="132" height="45" viewBox="0 0 132 45" fill="none" xmlns="http://www.w3.org/2000/svg">
<path d="M5.17529 38.6554H3.69092L3.70068 37.8888H5.17529C5.68311 37.8888 6.10628 37.783 6.44482 37.5714C6.78337 37.3566 7.03727 37.0571 7.20654 36.673C7.37907 36.2856 7.46533 35.8332 7.46533 35.3156V34.881C7.46533 34.4741 7.4165 34.1128 7.31885 33.797C7.22119 33.478 7.07796 33.2095 6.88916 32.9914C6.70036 32.77 6.46924 32.6024 6.1958 32.4884C5.92562 32.3745 5.61475 32.3175 5.26318 32.3175H3.66162V31.5461H5.26318C5.72868 31.5461 6.15348 31.6242 6.5376 31.7804C6.92171 31.9334 7.25212 32.1564 7.52881 32.4494C7.80876 32.7391 8.0236 33.0907 8.17334 33.5041C8.32308 33.9142 8.39795 34.3765 8.39795 34.8908V35.3156C8.39795 35.8299 8.32308 36.2938 8.17334 36.7072C8.0236 37.1173 7.80713 37.4673 7.52393 37.757C7.24398 38.0467 6.90544 38.2697 6.5083 38.4259C6.11442 38.5789 5.67008 38.6554 5.17529 38.6554ZM4.19385 31.5461V38.6554H3.25146V31.5461H4.19385ZM9.43799 36.0724V35.9601C9.43799 35.5793 9.49333 35.2261 9.604 34.9006C9.71468 34.5718 9.87419 34.2869 10.0825 34.0461C10.2909 33.8019 10.5431 33.6131 10.8394 33.4797C11.1356 33.3429 11.4676 33.2746 11.8354 33.2746C12.2065 33.2746 12.5402 33.3429 12.8364 33.4797C13.1359 33.6131 13.3898 33.8019 13.5981 34.0461C13.8097 34.2869 13.9709 34.5718 14.0815 34.9006C14.1922 35.2261 14.2476 35.5793 14.2476 35.9601V36.0724C14.2476 36.4533 14.1922 36.8065 14.0815 37.132C13.9709 37.4575 13.8097 37.7423 13.5981 37.9865C13.3898 38.2274 13.1375 38.4162 12.8413 38.5529C12.5483 38.6864 12.2163 38.7531 11.8452 38.7531C11.4741 38.7531 11.1405 38.6864 10.8442 38.5529C10.548 38.4162 10.2941 38.2274 10.0825 37.9865C9.87419 37.7423 9.71468 37.4575 9.604 37.132C9.49333 36.8065 9.43799 36.4533 9.43799 36.0724ZM10.3413 35.9601V36.0724C10.3413 36.3361 10.3722 36.5851 10.4341 36.8195C10.4959 37.0506 10.5887 37.2557 10.7124 37.4347C10.8394 37.6138 10.9972 37.7554 11.186 37.8595C11.3748 37.9604 11.5946 38.0109 11.8452 38.0109C12.0926 38.0109 12.3091 37.9604 12.4946 37.8595C12.6834 37.7554 12.8397 37.6138 12.9634 37.4347C13.0871 37.2557 13.1799 37.0506 13.2417 36.8195C13.3068 36.5851 13.3394 36.3361 13.3394 36.0724V35.9601C13.3394 35.6997 13.3068 35.4539 13.2417 35.2228C13.1799 34.9884 13.0854 34.7817 12.9585 34.6027C12.8348 34.4204 12.6785 34.2772 12.4897 34.173C12.3042 34.0688 12.0861 34.0168 11.8354 34.0168C11.5881 34.0168 11.37 34.0688 11.1812 34.173C10.9956 34.2772 10.8394 34.4204 10.7124 34.6027C10.5887 34.7817 10.4959 34.9884 10.4341 35.2228C10.3722 35.4539 10.3413 35.6997 10.3413 35.9601ZM16.3618 33.3722V38.6554H15.4536V33.3722H16.3618ZM15.3853 31.9709C15.3853 31.8244 15.4292 31.7007 15.5171 31.5998C15.6082 31.4989 15.7417 31.4484 15.9175 31.4484C16.09 31.4484 16.2218 31.4989 16.313 31.5998C16.4074 31.7007 16.4546 31.8244 16.4546 31.9709C16.4546 32.1108 16.4074 32.2313 16.313 32.3322C16.2218 32.4298 16.09 32.4787 15.9175 32.4787C15.7417 32.4787 15.6082 32.4298 15.5171 32.3322C15.4292 32.2313 15.3853 32.1108 15.3853 31.9709ZM18.7153 34.5002V38.6554H17.812V33.3722H18.6665L18.7153 34.5002ZM18.5005 35.8136L18.1245 35.799C18.1278 35.4377 18.1815 35.104 18.2856 34.798C18.3898 34.4888 18.5363 34.2202 18.7251 33.9923C18.9139 33.7645 19.1385 33.5887 19.3989 33.465C19.6626 33.3381 19.9539 33.2746 20.2729 33.2746C20.5334 33.2746 20.7677 33.3104 20.9761 33.382C21.1844 33.4504 21.3618 33.561 21.5083 33.714C21.658 33.867 21.772 34.0656 21.8501 34.3097C21.9282 34.5506 21.9673 34.8452 21.9673 35.1935V38.6554H21.0591V35.1838C21.0591 34.9071 21.0184 34.6857 20.937 34.5197C20.8556 34.3504 20.7368 34.2284 20.5806 34.1535C20.4243 34.0754 20.2323 34.0363 20.0044 34.0363C19.7798 34.0363 19.5747 34.0835 19.3892 34.1779C19.2069 34.2723 19.049 34.4025 18.9155 34.5685C18.7853 34.7345 18.6828 34.925 18.6079 35.1398C18.5363 35.3514 18.5005 35.576 18.5005 35.8136ZM26.7622 33.3722H27.5825V38.5431C27.5825 39.0086 27.4881 39.4058 27.2993 39.7345C27.1105 40.0633 26.8468 40.3123 26.5083 40.4816C26.173 40.6541 25.7856 40.7404 25.3462 40.7404C25.1639 40.7404 24.9491 40.7111 24.7017 40.6525C24.4575 40.5972 24.2166 40.5011 23.979 40.3644C23.7446 40.231 23.5477 40.0503 23.3882 39.8224L23.8618 39.2853C24.0832 39.5522 24.3143 39.7378 24.5552 39.842C24.7993 39.9461 25.0402 39.9982 25.2778 39.9982C25.5643 39.9982 25.8117 39.9445 26.02 39.8371C26.2284 39.7297 26.3895 39.5701 26.5034 39.3586C26.6206 39.1502 26.6792 38.8931 26.6792 38.5871V34.5343L26.7622 33.3722ZM23.1245 36.0724V35.9699C23.1245 35.5662 23.1717 35.2 23.2661 34.8713C23.3638 34.5392 23.5021 34.2544 23.6812 34.0168C23.8634 33.7791 24.0832 33.5968 24.3403 33.4699C24.5975 33.3397 24.8872 33.2746 25.2095 33.2746C25.5415 33.2746 25.8312 33.3332 26.0786 33.4504C26.3293 33.5643 26.5409 33.7319 26.7134 33.9533C26.8892 34.1714 27.0275 34.4351 27.1284 34.7443C27.2293 35.0535 27.2993 35.4035 27.3384 35.7941V36.2433C27.3026 36.6307 27.2326 36.979 27.1284 37.2882C27.0275 37.5975 26.8892 37.8612 26.7134 38.0793C26.5409 38.2974 26.3293 38.465 26.0786 38.5822C25.828 38.6961 25.535 38.7531 25.1997 38.7531C24.884 38.7531 24.5975 38.6864 24.3403 38.5529C24.0864 38.4194 23.8683 38.2323 23.686 37.9914C23.5037 37.7505 23.3638 37.4673 23.2661 37.1418C23.1717 36.813 23.1245 36.4565 23.1245 36.0724ZM24.0278 35.9699V36.0724C24.0278 36.3361 24.0539 36.5835 24.106 36.8146C24.1613 37.0457 24.2443 37.2492 24.355 37.425C24.4689 37.6007 24.6138 37.7391 24.7896 37.84C24.9653 37.9377 25.1753 37.9865 25.4194 37.9865C25.7189 37.9865 25.9663 37.923 26.1616 37.7961C26.3569 37.6691 26.5116 37.5015 26.6255 37.2931C26.7427 37.0848 26.8338 36.8586 26.8989 36.6144V35.4377C26.8631 35.2586 26.8078 35.0861 26.7329 34.9201C26.6613 34.7508 26.5669 34.6011 26.4497 34.4709C26.3358 34.3374 26.1942 34.2316 26.0249 34.1535C25.8556 34.0754 25.6571 34.0363 25.4292 34.0363C25.1818 34.0363 24.9686 34.0884 24.7896 34.1925C24.6138 34.2935 24.4689 34.4334 24.355 34.6125C24.2443 34.7882 24.1613 34.9933 24.106 35.2277C24.0539 35.4588 24.0278 35.7062 24.0278 35.9699ZM33.647 33.3722V34.0656H30.7905V33.3722H33.647ZM31.7573 32.0881H32.6606V37.3468C32.6606 37.5259 32.6883 37.661 32.7437 37.7521C32.799 37.8433 32.8706 37.9035 32.9585 37.9328C33.0464 37.9621 33.1408 37.9767 33.2417 37.9767C33.3166 37.9767 33.3947 37.9702 33.4761 37.9572C33.5607 37.9409 33.6242 37.9279 33.6665 37.9181L33.6714 38.6554C33.5998 38.6782 33.5054 38.6994 33.3882 38.7189C33.2743 38.7417 33.1359 38.7531 32.9731 38.7531C32.7518 38.7531 32.5483 38.7091 32.3628 38.6213C32.1772 38.5334 32.0291 38.3869 31.9185 38.1818C31.811 37.9735 31.7573 37.6935 31.7573 37.342V32.0881ZM35.6099 31.1554V38.6554H34.7065V31.1554H35.6099ZM35.395 35.8136L35.019 35.799C35.0223 35.4377 35.076 35.104 35.1802 34.798C35.2843 34.4888 35.4308 34.2202 35.6196 33.9923C35.8084 33.7645 36.033 33.5887 36.2935 33.465C36.5571 33.3381 36.8485 33.2746 37.1675 33.2746C37.4279 33.2746 37.6623 33.3104 37.8706 33.382C38.0789 33.4504 38.2563 33.561 38.4028 33.714C38.5526 33.867 38.6665 34.0656 38.7446 34.3097C38.8228 34.5506 38.8618 34.8452 38.8618 35.1935V38.6554H37.9536V35.1838C37.9536 34.9071 37.9129 34.6857 37.8315 34.5197C37.7502 34.3504 37.6313 34.2284 37.4751 34.1535C37.3188 34.0754 37.1268 34.0363 36.8989 34.0363C36.6743 34.0363 36.4692 34.0835 36.2837 34.1779C36.1014 34.2723 35.9435 34.4025 35.8101 34.5685C35.6799 34.7345 35.5773 34.925 35.5024 35.1398C35.4308 35.3514 35.395 35.576 35.395 35.8136ZM42.4067 38.7531C42.0389 38.7531 41.7052 38.6912 41.4058 38.5675C41.1095 38.4406 40.854 38.2632 40.6392 38.0353C40.4276 37.8075 40.2648 37.5373 40.1509 37.2248C40.0369 36.9123 39.98 36.5705 39.98 36.1994V35.9943C39.98 35.5646 40.0435 35.1821 40.1704 34.8468C40.2974 34.5083 40.4699 34.2218 40.688 33.9875C40.9061 33.7531 41.1535 33.5757 41.4302 33.4552C41.7069 33.3348 41.9933 33.2746 42.2896 33.2746C42.6672 33.2746 42.9927 33.3397 43.2661 33.4699C43.5428 33.6001 43.769 33.7824 43.9448 34.0168C44.1206 34.2479 44.2508 34.5213 44.3354 34.8371C44.4201 35.1496 44.4624 35.4914 44.4624 35.8625V36.2677H40.5171V35.5304H43.5591V35.4621C43.5461 35.2277 43.4972 34.9998 43.4126 34.7785C43.3312 34.5571 43.201 34.3748 43.022 34.2316C42.8429 34.0884 42.5988 34.0168 42.2896 34.0168C42.0845 34.0168 41.8957 34.0607 41.7231 34.1486C41.5506 34.2332 41.4025 34.3602 41.2788 34.5295C41.1551 34.6987 41.0591 34.9054 40.9907 35.1496C40.9224 35.3937 40.8882 35.6753 40.8882 35.9943V36.1994C40.8882 36.45 40.9224 36.686 40.9907 36.9074C41.0623 37.1255 41.1649 37.3175 41.2983 37.4836C41.4351 37.6496 41.5994 37.7798 41.7915 37.8742C41.9868 37.9686 42.2082 38.0158 42.4556 38.0158C42.7746 38.0158 43.0448 37.9507 43.2661 37.8205C43.4875 37.6903 43.6812 37.5161 43.8472 37.298L44.394 37.7326C44.2801 37.9051 44.1353 38.0695 43.9595 38.2257C43.7837 38.382 43.5672 38.5089 43.3101 38.6066C43.0562 38.7043 42.755 38.7531 42.4067 38.7531ZM48.9009 34.2023V38.6554H47.9976V33.3722H48.8765L48.9009 34.2023ZM50.5513 33.3429L50.5464 34.1828C50.4715 34.1665 50.3999 34.1567 50.3315 34.1535C50.2664 34.147 50.1916 34.1437 50.1069 34.1437C49.8986 34.1437 49.7147 34.1763 49.5552 34.2414C49.3957 34.3065 49.2606 34.3976 49.1499 34.5148C49.0392 34.632 48.9513 34.772 48.8862 34.9347C48.8244 35.0942 48.7837 35.27 48.7642 35.4621L48.5103 35.6086C48.5103 35.2895 48.5412 34.9901 48.603 34.7101C48.6681 34.4302 48.7674 34.1828 48.9009 33.9679C49.0343 33.7498 49.2036 33.5806 49.4087 33.4601C49.617 33.3364 49.8644 33.2746 50.1509 33.2746C50.216 33.2746 50.2909 33.2827 50.3755 33.299C50.4601 33.312 50.5187 33.3267 50.5513 33.3429ZM52.3677 33.3722V38.6554H51.4595V33.3722H52.3677ZM51.3911 31.9709C51.3911 31.8244 51.4351 31.7007 51.5229 31.5998C51.6141 31.4989 51.7476 31.4484 51.9233 31.4484C52.0959 31.4484 52.2277 31.4989 52.3188 31.5998C52.4132 31.7007 52.4604 31.8244 52.4604 31.9709C52.4604 32.1108 52.4132 32.2313 52.3188 32.3322C52.2277 32.4298 52.0959 32.4787 51.9233 32.4787C51.7476 32.4787 51.6141 32.4298 51.5229 32.3322C51.4351 32.2313 51.3911 32.1108 51.3911 31.9709ZM57.2407 33.3722H58.061V38.5431C58.061 39.0086 57.9666 39.4058 57.7778 39.7345C57.589 40.0633 57.3254 40.3123 56.9868 40.4816C56.6515 40.6541 56.2642 40.7404 55.8247 40.7404C55.6424 40.7404 55.4276 40.7111 55.1802 40.6525C54.936 40.5972 54.6951 40.5011 54.4575 40.3644C54.2231 40.231 54.0262 40.0503 53.8667 39.8224L54.3403 39.2853C54.5617 39.5522 54.7928 39.7378 55.0337 39.842C55.2778 39.9461 55.5187 39.9982 55.7563 39.9982C56.0428 39.9982 56.2902 39.9445 56.4985 39.8371C56.7069 39.7297 56.868 39.5701 56.9819 39.3586C57.0991 39.1502 57.1577 38.8931 57.1577 38.5871V34.5343L57.2407 33.3722ZM53.603 36.0724V35.9699C53.603 35.5662 53.6502 35.2 53.7446 34.8713C53.8423 34.5392 53.9806 34.2544 54.1597 34.0168C54.342 33.7791 54.5617 33.5968 54.8188 33.4699C55.076 33.3397 55.3657 33.2746 55.688 33.2746C56.02 33.2746 56.3097 33.3332 56.5571 33.4504C56.8078 33.5643 57.0194 33.7319 57.1919 33.9533C57.3677 34.1714 57.506 34.4351 57.6069 34.7443C57.7078 35.0535 57.7778 35.4035 57.8169 35.7941V36.2433C57.7811 36.6307 57.7111 36.979 57.6069 37.2882C57.506 37.5975 57.3677 37.8612 57.1919 38.0793C57.0194 38.2974 56.8078 38.465 56.5571 38.5822C56.3065 38.6961 56.0135 38.7531 55.6782 38.7531C55.3625 38.7531 55.076 38.6864 54.8188 38.5529C54.5649 38.4194 54.3468 38.2323 54.1646 37.9914C53.9823 37.7505 53.8423 37.4673 53.7446 37.1418C53.6502 36.813 53.603 36.4565 53.603 36.0724ZM54.5063 35.9699V36.0724C54.5063 36.3361 54.5324 36.5835 54.5845 36.8146C54.6398 37.0457 54.7228 37.2492 54.8335 37.425C54.9474 37.6007 55.0923 37.7391 55.2681 37.84C55.4438 37.9377 55.6538 37.9865 55.8979 37.9865C56.1974 37.9865 56.4448 37.923 56.6401 37.7961C56.8354 37.6691 56.9901 37.5015 57.104 37.2931C57.2212 37.0848 57.3123 36.8586 57.3774 36.6144V35.4377C57.3416 35.2586 57.2863 35.0861 57.2114 34.9201C57.1398 34.7508 57.0454 34.6011 56.9282 34.4709C56.8143 34.3374 56.6727 34.2316 56.5034 34.1535C56.3341 34.0754 56.1356 34.0363 55.9077 34.0363C55.6603 34.0363 55.4471 34.0884 55.2681 34.1925C55.0923 34.2935 54.9474 34.4334 54.8335 34.6125C54.7228 34.7882 54.6398 34.9933 54.5845 35.2277C54.5324 35.4588 54.5063 35.7062 54.5063 35.9699ZM60.3364 31.1554V38.6554H59.4331V31.1554H60.3364ZM60.1216 35.8136L59.7456 35.799C59.7489 35.4377 59.8026 35.104 59.9067 34.798C60.0109 34.4888 60.1574 34.2202 60.3462 33.9923C60.535 33.7645 60.7596 33.5887 61.02 33.465C61.2837 33.3381 61.575 33.2746 61.894 33.2746C62.1545 33.2746 62.3888 33.3104 62.5972 33.382C62.8055 33.4504 62.9829 33.561 63.1294 33.714C63.2791 33.867 63.3931 34.0656 63.4712 34.3097C63.5493 34.5506 63.5884 34.8452 63.5884 35.1935V38.6554H62.6802V35.1838C62.6802 34.9071 62.6395 34.6857 62.5581 34.5197C62.4767 34.3504 62.3579 34.2284 62.2017 34.1535C62.0454 34.0754 61.8534 34.0363 61.6255 34.0363C61.4009 34.0363 61.1958 34.0835 61.0103 34.1779C60.828 34.2723 60.6701 34.4025 60.5366 34.5685C60.4064 34.7345 60.3039 34.925 60.229 35.1398C60.1574 35.3514 60.1216 35.576 60.1216 35.8136ZM67.1528 33.3722V34.0656H64.2964V33.3722H67.1528ZM65.2632 32.0881H66.1665V37.3468C66.1665 37.5259 66.1942 37.661 66.2495 37.7521C66.3049 37.8433 66.3765 37.9035 66.4644 37.9328C66.5522 37.9621 66.6466 37.9767 66.7476 37.9767C66.8224 37.9767 66.9006 37.9702 66.9819 37.9572C67.0666 37.9409 67.13 37.9279 67.1724 37.9181L67.1772 38.6554C67.1056 38.6782 67.0112 38.6994 66.894 38.7189C66.7801 38.7417 66.6418 38.7531 66.479 38.7531C66.2576 38.7531 66.0542 38.7091 65.8687 38.6213C65.6831 38.5334 65.535 38.3869 65.4243 38.1818C65.3169 37.9735 65.2632 37.6935 65.2632 37.342V32.0881ZM72.9048 33.3722V34.0656H70.0483V33.3722H72.9048ZM71.0151 32.0881H71.9185V37.3468C71.9185 37.5259 71.9461 37.661 72.0015 37.7521C72.0568 37.8433 72.1284 37.9035 72.2163 37.9328C72.3042 37.9621 72.3986 37.9767 72.4995 37.9767C72.5744 37.9767 72.6525 37.9702 72.7339 37.9572C72.8185 37.9409 72.882 37.9279 72.9243 37.9181L72.9292 38.6554C72.8576 38.6782 72.7632 38.6994 72.646 38.7189C72.5321 38.7417 72.3937 38.7531 72.231 38.7531C72.0096 38.7531 71.8062 38.7091 71.6206 38.6213C71.4351 38.5334 71.2869 38.3869 71.1763 38.1818C71.0688 37.9735 71.0151 37.6935 71.0151 37.342V32.0881ZM74.8677 31.1554V38.6554H73.9644V31.1554H74.8677ZM74.6528 35.8136L74.2769 35.799C74.2801 35.4377 74.3338 35.104 74.438 34.798C74.5422 34.4888 74.6886 34.2202 74.8774 33.9923C75.0662 33.7645 75.2909 33.5887 75.5513 33.465C75.8149 33.3381 76.1063 33.2746 76.4253 33.2746C76.6857 33.2746 76.9201 33.3104 77.1284 33.382C77.3368 33.4504 77.5142 33.561 77.6606 33.714C77.8104 33.867 77.9243 34.0656 78.0024 34.3097C78.0806 34.5506 78.1196 34.8452 78.1196 35.1935V38.6554H77.2114V35.1838C77.2114 34.9071 77.1707 34.6857 77.0894 34.5197C77.008 34.3504 76.8892 34.2284 76.7329 34.1535C76.5767 34.0754 76.3846 34.0363 76.1567 34.0363C75.9321 34.0363 75.7271 34.0835 75.5415 34.1779C75.3592 34.2723 75.2013 34.4025 75.0679 34.5685C74.9377 34.7345 74.8351 34.925 74.7603 35.1398C74.6886 35.3514 74.6528 35.576 74.6528 35.8136ZM80.4536 33.3722V38.6554H79.5454V33.3722H80.4536ZM79.4771 31.9709C79.4771 31.8244 79.521 31.7007 79.6089 31.5998C79.7 31.4989 79.8335 31.4484 80.0093 31.4484C80.1818 31.4484 80.3136 31.4989 80.4048 31.5998C80.4992 31.7007 80.5464 31.8244 80.5464 31.9709C80.5464 32.1108 80.4992 32.2313 80.4048 32.3322C80.3136 32.4298 80.1818 32.4787 80.0093 32.4787C79.8335 32.4787 79.7 32.4298 79.6089 32.3322C79.521 32.2313 79.4771 32.1108 79.4771 31.9709ZM82.8071 34.5002V38.6554H81.9038V33.3722H82.7583L82.8071 34.5002ZM82.5923 35.8136L82.2163 35.799C82.2196 35.4377 82.2733 35.104 82.3774 34.798C82.4816 34.4888 82.6281 34.2202 82.8169 33.9923C83.0057 33.7645 83.2303 33.5887 83.4907 33.465C83.7544 33.3381 84.0457 33.2746 84.3647 33.2746C84.6252 33.2746 84.8595 33.3104 85.0679 33.382C85.2762 33.4504 85.4536 33.561 85.6001 33.714C85.7498 33.867 85.8638 34.0656 85.9419 34.3097C86.02 34.5506 86.0591 34.8452 86.0591 35.1935V38.6554H85.1509V35.1838C85.1509 34.9071 85.1102 34.6857 85.0288 34.5197C84.9474 34.3504 84.8286 34.2284 84.6724 34.1535C84.5161 34.0754 84.3241 34.0363 84.0962 34.0363C83.8716 34.0363 83.6665 34.0835 83.481 34.1779C83.2987 34.2723 83.1408 34.4025 83.0073 34.5685C82.8771 34.7345 82.7746 34.925 82.6997 35.1398C82.6281 35.3514 82.5923 35.576 82.5923 35.8136ZM90.854 33.3722H91.6743V38.5431C91.6743 39.0086 91.5799 39.4058 91.3911 39.7345C91.2023 40.0633 90.9386 40.3123 90.6001 40.4816C90.2648 40.6541 89.8774 40.7404 89.438 40.7404C89.2557 40.7404 89.0409 40.7111 88.7935 40.6525C88.5493 40.5972 88.3084 40.5011 88.0708 40.3644C87.8364 40.231 87.6395 40.0503 87.48 39.8224L87.9536 39.2853C88.175 39.5522 88.4061 39.7378 88.647 39.842C88.8911 39.9461 89.132 39.9982 89.3696 39.9982C89.6561 39.9982 89.9035 39.9445 90.1118 39.8371C90.3201 39.7297 90.4813 39.5701 90.5952 39.3586C90.7124 39.1502 90.771 38.8931 90.771 38.5871V34.5343L90.854 33.3722ZM87.2163 36.0724V35.9699C87.2163 35.5662 87.2635 35.2 87.3579 34.8713C87.4556 34.5392 87.5939 34.2544 87.7729 34.0168C87.9552 33.7791 88.175 33.5968 88.4321 33.4699C88.6893 33.3397 88.979 33.2746 89.3013 33.2746C89.6333 33.2746 89.923 33.3332 90.1704 33.4504C90.4211 33.5643 90.6326 33.7319 90.8052 33.9533C90.981 34.1714 91.1193 34.4351 91.2202 34.7443C91.3211 35.0535 91.3911 35.4035 91.4302 35.7941V36.2433C91.3944 36.6307 91.3244 36.979 91.2202 37.2882C91.1193 37.5975 90.981 37.8612 90.8052 38.0793C90.6326 38.2974 90.4211 38.465 90.1704 38.5822C89.9198 38.6961 89.6268 38.7531 89.2915 38.7531C88.9757 38.7531 88.6893 38.6864 88.4321 38.5529C88.1782 38.4194 87.9601 38.2323 87.7778 37.9914C87.5955 37.7505 87.4556 37.4673 87.3579 37.1418C87.2635 36.813 87.2163 36.4565 87.2163 36.0724ZM88.1196 35.9699V36.0724C88.1196 36.3361 88.1457 36.5835 88.1978 36.8146C88.2531 37.0457 88.3361 37.2492 88.4468 37.425C88.5607 37.6007 88.7056 37.7391 88.8813 37.84C89.0571 37.9377 89.2671 37.9865 89.5112 37.9865C89.8107 37.9865 90.0581 37.923 90.2534 37.7961C90.4487 37.6691 90.6034 37.5015 90.7173 37.2931C90.8345 37.0848 90.9256 36.8586 90.9907 36.6144V35.4377C90.9549 35.2586 90.8996 35.0861 90.8247 34.9201C90.7531 34.7508 90.6587 34.6011 90.5415 34.4709C90.4276 34.3374 90.286 34.2316 90.1167 34.1535C89.9474 34.0754 89.7489 34.0363 89.521 34.0363C89.2736 34.0363 89.0604 34.0884 88.8813 34.1925C88.7056 34.2935 88.5607 34.4334 88.4468 34.6125C88.3361 34.7882 88.2531 34.9933 88.1978 35.2277C88.1457 35.4588 88.1196 35.7062 88.1196 35.9699ZM93.061 38.1769C93.061 38.0239 93.1082 37.8953 93.2026 37.7912C93.3003 37.6838 93.4403 37.63 93.6226 37.63C93.8049 37.63 93.9432 37.6838 94.0376 37.7912C94.1353 37.8953 94.1841 38.0239 94.1841 38.1769C94.1841 38.3267 94.1353 38.4536 94.0376 38.5578C93.9432 38.6619 93.8049 38.714 93.6226 38.714C93.4403 38.714 93.3003 38.6619 93.2026 38.5578C93.1082 38.4536 93.061 38.3267 93.061 38.1769ZM100.932 32.1759L98.5786 38.6554H97.6167L100.327 31.5461H100.947L100.932 32.1759ZM102.905 38.6554L100.546 32.1759L100.532 31.5461H101.152L103.872 38.6554H102.905ZM102.783 36.0236V36.7951H98.7886V36.0236H102.783ZM105.668 31.1554V38.6554H104.76V31.1554H105.668ZM108.457 37.7179L109.814 33.3722H110.41L110.292 34.2365L108.911 38.6554H108.33L108.457 37.7179ZM107.543 33.3722L108.701 37.7668L108.784 38.6554H108.173L106.64 33.3722H107.543ZM111.708 37.7326L112.812 33.3722H113.71L112.177 38.6554H111.572L111.708 37.7326ZM110.542 33.3722L111.87 37.6447L112.021 38.6554H111.445L110.024 34.2267L109.907 33.3722H110.542ZM117.753 37.7521V35.0324C117.753 34.8241 117.711 34.6434 117.626 34.4904C117.545 34.3341 117.421 34.2137 117.255 34.1291C117.089 34.0444 116.884 34.0021 116.64 34.0021C116.412 34.0021 116.212 34.0412 116.04 34.1193C115.87 34.1974 115.737 34.3 115.639 34.4269C115.545 34.5539 115.498 34.6906 115.498 34.8371H114.594C114.594 34.6483 114.643 34.4611 114.741 34.2756C114.838 34.09 114.978 33.9224 115.161 33.7726C115.346 33.6196 115.568 33.4992 115.825 33.4113C116.085 33.3201 116.375 33.2746 116.694 33.2746C117.078 33.2746 117.417 33.3397 117.709 33.4699C118.006 33.6001 118.237 33.797 118.403 34.0607C118.572 34.3211 118.657 34.6483 118.657 35.0422V37.5031C118.657 37.6789 118.671 37.866 118.701 38.0646C118.733 38.2632 118.78 38.4341 118.842 38.5773V38.6554H117.9C117.854 38.5513 117.819 38.4129 117.792 38.2404C117.766 38.0646 117.753 37.9019 117.753 37.7521ZM117.91 35.4523L117.919 36.0871H117.006C116.749 36.0871 116.52 36.1082 116.318 36.1506C116.116 36.1896 115.947 36.2498 115.81 36.3312C115.673 36.4126 115.569 36.5151 115.498 36.6388C115.426 36.7593 115.39 36.9009 115.39 37.0636C115.39 37.2297 115.428 37.381 115.502 37.5177C115.577 37.6545 115.69 37.7635 115.839 37.8449C115.992 37.923 116.18 37.9621 116.401 37.9621C116.678 37.9621 116.922 37.9035 117.133 37.7863C117.345 37.6691 117.513 37.5259 117.636 37.3566C117.763 37.1873 117.832 37.0229 117.841 36.8634L118.227 37.298C118.204 37.4347 118.142 37.5861 118.042 37.7521C117.941 37.9181 117.806 38.0776 117.636 38.2306C117.47 38.3804 117.272 38.5057 117.041 38.6066C116.813 38.7043 116.556 38.7531 116.269 38.7531C115.911 38.7531 115.597 38.6831 115.327 38.5431C115.06 38.4032 114.851 38.216 114.702 37.9816C114.555 37.744 114.482 37.4787 114.482 37.1857C114.482 36.9025 114.537 36.6535 114.648 36.4386C114.759 36.2205 114.918 36.0399 115.126 35.8966C115.335 35.7502 115.585 35.6395 115.878 35.5646C116.171 35.4897 116.499 35.4523 116.86 35.4523H117.91ZM121.484 38.1086L122.954 33.3722H123.92L121.801 39.4709C121.752 39.6011 121.687 39.741 121.606 39.8908C121.528 40.0438 121.427 40.1886 121.303 40.3254C121.18 40.4621 121.03 40.5728 120.854 40.6574C120.681 40.7453 120.475 40.7892 120.234 40.7892C120.162 40.7892 120.071 40.7795 119.96 40.7599C119.85 40.7404 119.772 40.7241 119.726 40.7111L119.721 39.9787C119.747 39.9819 119.788 39.9852 119.843 39.9884C119.902 39.995 119.943 39.9982 119.965 39.9982C120.17 39.9982 120.345 39.9705 120.488 39.9152C120.631 39.8631 120.751 39.7736 120.849 39.6466C120.95 39.5229 121.036 39.352 121.108 39.1339L121.484 38.1086ZM120.405 33.3722L121.777 37.4738L122.011 38.4259L121.362 38.758L119.418 33.3722H120.405ZM127.812 37.2541C127.812 37.1239 127.783 37.0034 127.724 36.8927C127.669 36.7788 127.553 36.6763 127.377 36.5851C127.205 36.4907 126.944 36.4093 126.596 36.341C126.303 36.2791 126.038 36.2059 125.8 36.1213C125.566 36.0366 125.366 35.9341 125.2 35.8136C125.037 35.6932 124.912 35.5516 124.824 35.3888C124.736 35.2261 124.692 35.0356 124.692 34.8175C124.692 34.6092 124.737 34.4123 124.829 34.2267C124.923 34.0412 125.055 33.8768 125.224 33.7336C125.397 33.5903 125.603 33.478 125.844 33.3966C126.085 33.3153 126.354 33.2746 126.65 33.2746C127.073 33.2746 127.434 33.3494 127.734 33.4992C128.033 33.6489 128.263 33.8491 128.422 34.0998C128.582 34.3472 128.662 34.6222 128.662 34.925H127.758C127.758 34.7785 127.714 34.6369 127.626 34.5002C127.542 34.3602 127.417 34.2446 127.25 34.1535C127.088 34.0623 126.888 34.0168 126.65 34.0168C126.399 34.0168 126.196 34.0558 126.04 34.1339C125.887 34.2088 125.774 34.3048 125.703 34.422C125.634 34.5392 125.6 34.6629 125.6 34.7931C125.6 34.8908 125.616 34.9787 125.649 35.0568C125.685 35.1317 125.747 35.2017 125.834 35.2668C125.922 35.3286 126.046 35.3872 126.206 35.4425C126.365 35.4979 126.569 35.5532 126.816 35.6086C127.249 35.7062 127.605 35.8234 127.885 35.9601C128.165 36.0968 128.374 36.2645 128.51 36.4631C128.647 36.6616 128.715 36.9025 128.715 37.1857C128.715 37.4168 128.667 37.6284 128.569 37.8205C128.474 38.0125 128.336 38.1785 128.154 38.3185C127.975 38.4552 127.76 38.5627 127.509 38.6408C127.262 38.7157 126.984 38.7531 126.674 38.7531C126.209 38.7531 125.815 38.6701 125.493 38.5041C125.17 38.3381 124.926 38.1232 124.76 37.8595C124.594 37.5959 124.511 37.3175 124.511 37.0246H125.419C125.432 37.272 125.504 37.4689 125.634 37.6154C125.764 37.7586 125.924 37.8612 126.113 37.923C126.302 37.9816 126.489 38.0109 126.674 38.0109C126.922 38.0109 127.128 37.9784 127.294 37.9132C127.464 37.8481 127.592 37.7586 127.68 37.6447C127.768 37.5308 127.812 37.4006 127.812 37.2541ZM129.917 38.1769C129.917 38.0239 129.964 37.8953 130.058 37.7912C130.156 37.6838 130.296 37.63 130.478 37.63C130.66 37.63 130.799 37.6838 130.893 37.7912C130.991 37.8953 131.04 38.0239 131.04 38.1769C131.04 38.3267 130.991 38.4536 130.893 38.5578C130.799 38.6619 130.66 38.714 130.478 38.714C130.296 38.714 130.156 38.6619 130.058 38.5578C129.964 38.4536 129.917 38.3267 129.917 38.1769Z" fill="black"/>
<path d="M11.8586 0.936963L6.14759 10.576C6.00172 10.8167 5.79624 11.0157 5.551 11.1539C5.30577 11.292 5.02906 11.3646 4.7476 11.3646C4.46613 11.3646 4.18941 11.292 3.94417 11.1539C3.69894 11.0157 3.49346 10.8167 3.34759 10.576L0.435584 5.66096C0.156105 5.17682 0.0105056 4.62702 0.0137241 4.06801C0.0169426 3.50899 0.168874 2.96092 0.45391 2.48002C0.738945 1.99913 1.14681 1.60274 1.63566 1.33157C2.1245 1.0604 2.67671 0.9242 3.23559 0.936963H11.8586Z" fill="black"/>
<path d="M4.7486 12.938L10.9996 23.488C11.2913 23.9694 11.7023 24.3675 12.1928 24.6438C12.6832 24.92 13.2367 25.0652 13.7996 25.0652C14.3625 25.0652 14.9159 24.92 15.4064 24.6438C15.8969 24.3675 16.3078 23.9694 16.5996 23.488L27.1606 5.66096C27.4401 5.17682 27.5857 4.62702 27.5825 4.06801C27.5792 3.50899 27.4273 2.96092 27.1423 2.48002C26.8572 1.99913 26.4494 1.60274 25.9605 1.33157C25.4717 1.0604 24.9195 0.9242 24.3606 0.936963H13.8166L7.34459 11.861C7.07525 12.3305 6.63049 12.6739 6.10808 12.8157C5.58566 12.9574 5.02834 12.886 4.55859 12.617L4.7486 12.938Z" fill="black"/>
<path d="M30.4033 8.78494H32.1453C32.3148 8.77664 32.4818 8.82795 32.6173 8.92995C32.7376 9.02843 32.8306 9.15618 32.8873 9.30095L37.4373 20.659C37.5477 20.9305 37.6432 21.2079 37.7233 21.4899C37.8093 21.7899 37.8933 22.1009 37.9753 22.4229C38.042 22.1009 38.1153 21.7899 38.1953 21.4899C38.2683 21.2071 38.3601 20.9295 38.4703 20.659L42.9973 9.30095C43.0579 9.16319 43.1505 9.04184 43.2673 8.94694C43.3991 8.83703 43.5668 8.77937 43.7383 8.78494H45.4913L38.9303 24.8849H36.9633L30.4033 8.78494Z" fill="black"/>
<path d="M54.2912 24.883H53.4042C53.2417 24.8899 53.0798 24.8591 52.9312 24.793C52.8648 24.7521 52.8089 24.6963 52.7679 24.6299C52.7269 24.5636 52.702 24.4886 52.6952 24.411L52.4712 23.355C52.1712 23.6216 51.8792 23.8633 51.5952 24.08C51.3148 24.2902 51.0131 24.4705 50.6952 24.618C50.3736 24.7665 50.036 24.8779 49.6892 24.95C49.2991 25.0285 48.902 25.0663 48.5042 25.0629C48.083 25.0659 47.664 25.0031 47.2622 24.877C46.8923 24.7611 46.5499 24.5708 46.2562 24.318C45.9625 24.0582 45.7303 23.7364 45.5762 23.3759C45.3985 22.9496 45.3123 22.4907 45.3232 22.0289C45.3263 21.5699 45.4546 21.1205 45.6942 20.7289C45.9936 20.2629 46.4065 19.8806 46.8942 19.618C47.5718 19.2475 48.3008 18.9799 49.0572 18.8239C50.1319 18.5991 51.2284 18.4951 52.3262 18.514V17.621C52.3775 16.9027 52.1767 16.189 51.7582 15.603C51.5493 15.3681 51.2893 15.1843 50.9982 15.0657C50.7071 14.9471 50.3927 14.8969 50.0792 14.9189C49.6614 14.9077 49.245 14.9707 48.8492 15.105C48.5472 15.2129 48.2573 15.352 47.9842 15.5199C47.7402 15.6733 47.5302 15.8119 47.3542 15.9359C47.2038 16.0508 47.0213 16.1159 46.8322 16.122C46.7058 16.1244 46.582 16.087 46.4782 16.015C46.3788 15.946 46.2965 15.8554 46.2372 15.75L45.8782 15.11C46.4635 14.5318 47.1534 14.0703 47.9112 13.75C48.679 13.4421 49.5 13.2892 50.3272 13.2999C50.9092 13.2889 51.4875 13.3957 52.0272 13.614C52.5025 13.8106 52.9283 14.1101 53.2742 14.491C53.6226 14.885 53.8834 15.3486 54.0392 15.851C54.2165 16.4182 54.3035 17.0097 54.2972 17.6039L54.2912 24.883ZM49.1012 23.659C49.4266 23.6622 49.7513 23.6262 50.0682 23.552C50.3539 23.4844 50.6308 23.3838 50.8932 23.252C51.1557 23.1185 51.404 22.9587 51.6342 22.775C51.8797 22.5786 52.1106 22.3648 52.3252 22.135V19.786C51.5388 19.7754 50.7531 19.8343 49.9772 19.9619C49.4354 20.0483 48.9067 20.2021 48.4032 20.42C48.0573 20.5629 47.754 20.7922 47.5222 21.086C47.3406 21.3353 47.2441 21.6365 47.2472 21.945C47.2404 22.2122 47.2898 22.478 47.3922 22.7249C47.4808 22.9314 47.6156 23.1147 47.7862 23.261C47.9565 23.4039 48.1557 23.5083 48.3702 23.567C48.6084 23.6315 48.8544 23.6624 49.1012 23.659Z" fill="black"/>
<path d="M59.5508 8.33495V24.8859H57.5508V8.33495H59.5508Z" fill="black"/>
<path d="M64.806 13.5029V20.7599C64.7613 21.4768 64.974 22.186 65.406 22.7599C65.633 23.0063 65.9129 23.1979 66.2247 23.3206C66.5364 23.4432 66.872 23.4936 67.206 23.4679C67.7825 23.4699 68.3502 23.3268 68.857 23.0519C69.3981 22.7549 69.8815 22.363 70.284 21.8949V13.5029H72.284V24.8829H71.093C70.9678 24.8924 70.8435 24.8553 70.744 24.7787C70.6445 24.7021 70.5768 24.5914 70.554 24.4679L70.397 23.2429C69.9219 23.7745 69.3595 24.2209 68.734 24.5629C68.0833 24.9047 67.3568 25.0767 66.622 25.0629C66.0579 25.0737 65.4977 24.9685 64.976 24.7539C64.5144 24.5596 64.1038 24.2615 63.776 23.8829C63.4416 23.4858 63.1946 23.0228 63.051 22.5239C62.8845 21.9509 62.8033 21.3566 62.81 20.7599V13.5029H64.806Z" fill="black"/>
<path d="M80.0749 13.323C80.72 13.3165 81.3604 13.4329 81.9619 13.666C82.5248 13.8849 83.0342 14.2218 83.4559 14.654C83.8925 15.1123 84.2274 15.6575 84.4389 16.254C84.6852 16.9481 84.8051 17.6807 84.7929 18.417C84.8123 18.6317 84.7779 18.8479 84.6929 19.046C84.6483 19.1031 84.5896 19.1476 84.5227 19.1753C84.4558 19.2029 84.3828 19.2128 84.3109 19.204H76.7389C76.7407 19.8405 76.8392 20.4731 77.0309 21.08C77.187 21.5687 77.4393 22.0213 77.7729 22.411C78.0797 22.7621 78.4648 23.0361 78.8969 23.211C79.3622 23.3929 79.8584 23.4826 80.3579 23.475C80.7977 23.4843 81.2363 23.4253 81.6579 23.3C81.9804 23.2007 82.2941 23.0749 82.5959 22.924C82.8217 22.8099 83.0413 22.684 83.2539 22.547C83.3859 22.4468 83.5438 22.3864 83.7089 22.373C83.7834 22.3698 83.8576 22.3856 83.9242 22.419C83.9909 22.4525 84.0479 22.5024 84.0899 22.564L84.6519 23.293C84.3987 23.5983 84.0991 23.8619 83.7639 24.074C83.4168 24.2966 83.0459 24.4794 82.6579 24.619C82.2617 24.7624 81.8534 24.8698 81.4379 24.94C81.0259 25.01 80.6088 25.0454 80.1909 25.046C79.4476 25.0537 78.7098 24.9178 78.0179 24.646C77.366 24.3874 76.7791 23.9883 76.2989 23.477C75.7944 22.9292 75.4098 22.2821 75.1699 21.577C74.8885 20.7376 74.7532 19.8562 74.7699 18.971C74.7637 18.2142 74.8875 17.4619 75.1359 16.747C75.3627 16.0858 75.7198 15.4768 76.1859 14.956C76.6521 14.4436 77.223 14.0374 77.8599 13.765C78.5597 13.466 79.314 13.3155 80.0749 13.323ZM80.1199 14.795C79.7028 14.772 79.2853 14.8344 78.8931 14.9783C78.5009 15.1222 78.1422 15.3447 77.8389 15.632C77.2475 16.2698 76.8843 17.0857 76.8059 17.952H82.9949C83.0001 17.5193 82.9359 17.0885 82.8049 16.676C82.687 16.3082 82.4958 15.968 82.2429 15.676C81.995 15.3949 81.6875 15.1725 81.3429 15.025C80.9551 14.865 80.5384 14.7867 80.1189 14.795H80.1199Z" fill="black"/>
<path d="M89.8392 23.0519H96.8051V24.8829H87.6602V8.78294H89.8401L89.8392 23.0519Z" fill="black"/>
<path d="M107.249 24.8829H106.362C106.2 24.8898 106.038 24.859 105.889 24.7929C105.823 24.7521 105.767 24.6963 105.726 24.6299C105.685 24.5636 105.66 24.4886 105.653 24.4109L105.429 23.3549C105.129 23.6216 104.837 23.8633 104.552 24.08C104.272 24.2903 103.97 24.4706 103.652 24.6179C103.331 24.7665 102.993 24.8779 102.646 24.9499C102.256 25.0285 101.859 25.0663 101.461 25.0629C101.04 25.0658 100.621 25.003 100.219 24.8769C99.8494 24.7609 99.5071 24.5707 99.2132 24.3179C98.9201 24.058 98.6882 23.7362 98.5342 23.3759C98.3565 22.9496 98.2703 22.4907 98.2812 22.0289C98.2843 21.5699 98.4126 21.1205 98.6522 20.7289C98.9516 20.2629 99.3645 19.8806 99.8522 19.6179C100.53 19.2476 101.258 18.98 102.014 18.8239C103.089 18.599 104.186 18.4951 105.284 18.5139V17.621C105.336 16.9027 105.135 16.189 104.716 15.6029C104.507 15.3681 104.247 15.1843 103.956 15.0657C103.665 14.9471 103.351 14.8969 103.037 14.9189C102.619 14.9077 102.203 14.9707 101.807 15.1049C101.505 15.2128 101.215 15.3519 100.942 15.5199C100.698 15.6739 100.488 15.8119 100.312 15.9359C100.162 16.0508 99.9793 16.1159 99.7902 16.1219C99.6639 16.1244 99.54 16.087 99.4362 16.0149C99.3369 15.946 99.2545 15.8554 99.1952 15.75L98.8362 15.11C99.4214 14.5317 100.111 14.0702 100.869 13.75C101.637 13.4422 102.457 13.2892 103.284 13.2999C103.866 13.2889 104.444 13.3957 104.984 13.6139C105.46 13.8106 105.885 14.1101 106.231 14.4909C106.579 14.8851 106.84 15.3486 106.995 15.8509C107.173 16.4181 107.26 17.0097 107.253 17.6039L107.249 24.8829ZM102.059 23.6589C102.385 23.6621 102.709 23.6262 103.026 23.552C103.312 23.4844 103.589 23.3837 103.851 23.2519C104.114 23.1185 104.362 22.9587 104.592 22.7749C104.838 22.5785 105.069 22.3646 105.283 22.1349V19.7859C104.497 19.7754 103.711 19.8343 102.935 19.9619C102.394 20.0483 101.865 20.2022 101.362 20.4199C101.016 20.5629 100.712 20.7922 100.48 21.0859C100.299 21.3353 100.202 21.6365 100.205 21.9449C100.198 22.2122 100.248 22.478 100.35 22.7249C100.439 22.9313 100.574 23.1146 100.744 23.261C100.915 23.4039 101.114 23.5083 101.328 23.567C101.566 23.6315 101.812 23.6624 102.059 23.6589Z" fill="black"/>
<path d="M110.352 24.8859V8.33495H112.362V15.1429C112.819 14.6083 113.369 14.161 113.986 13.8229C114.632 13.4804 115.354 13.3083 116.086 13.3229C116.701 13.3138 117.31 13.4401 117.871 13.6929C118.408 13.9445 118.875 14.3247 119.231 14.7999C119.632 15.3457 119.926 15.9631 120.096 16.6189C120.309 17.4348 120.41 18.2758 120.396 19.1189C120.402 19.9121 120.289 20.7016 120.06 21.4609C119.856 22.1416 119.526 22.778 119.088 23.3369C118.657 23.8796 118.107 24.3154 117.481 24.6103C116.854 24.9052 116.168 25.0513 115.476 25.0369C114.826 25.057 114.181 24.91 113.605 24.6099C113.078 24.3129 112.62 23.9069 112.263 23.4189L112.163 24.452C112.149 24.5764 112.087 24.6907 111.991 24.7704C111.894 24.8501 111.77 24.8891 111.646 24.8789L110.352 24.8859ZM115.43 14.9209C114.828 14.9078 114.234 15.0634 113.717 15.3699C113.189 15.7041 112.73 16.135 112.363 16.6399V22.1399C112.666 22.5855 113.079 22.9454 113.563 23.1849C114.024 23.3908 114.525 23.4932 115.03 23.4849C115.499 23.5101 115.968 23.4197 116.395 23.2217C116.822 23.0236 117.193 22.724 117.478 22.3489C118.104 21.3911 118.404 20.2562 118.332 19.1139C118.341 18.4716 118.274 17.8304 118.132 17.2039C118.028 16.7352 117.836 16.2908 117.565 15.8949C117.335 15.5679 117.02 15.3097 116.655 15.1479C116.267 14.9874 115.849 14.9094 115.43 14.9189V14.9209Z" fill="black"/>
<path d="M129.359 15.378C129.322 15.4551 129.262 15.5196 129.188 15.5634C129.114 15.6073 129.029 15.6287 128.943 15.6249C128.808 15.6177 128.677 15.5754 128.562 15.5019C128.42 15.4199 128.245 15.328 128.039 15.227C127.802 15.1132 127.556 15.0192 127.303 14.9459C126.975 14.8534 126.634 14.8096 126.292 14.8159C125.984 14.8118 125.677 14.8557 125.382 14.9459C125.133 15.0216 124.899 15.1415 124.691 15.3C124.509 15.4401 124.36 15.6182 124.253 15.822C124.152 16.0221 124.1 16.2436 124.101 16.4679C124.092 16.7339 124.183 16.9937 124.354 17.197C124.542 17.4071 124.769 17.5789 125.022 17.703C125.326 17.856 125.641 17.9821 125.966 18.0799C126.318 18.1886 126.68 18.3046 127.05 18.4279C127.421 18.5513 127.782 18.6879 128.134 18.8379C128.474 18.9803 128.792 19.1695 129.078 19.3999C129.356 19.6256 129.584 19.907 129.746 20.2259C129.924 20.5913 130.011 20.994 129.999 21.3999C130.004 21.8986 129.908 22.3932 129.717 22.854C129.532 23.298 129.248 23.694 128.886 24.0119C128.491 24.3539 128.033 24.6154 127.537 24.7819C126.944 24.9787 126.321 25.0737 125.695 25.063C124.958 25.0734 124.226 24.9416 123.538 24.675C122.937 24.4431 122.382 24.1065 121.898 23.6809L122.37 22.917C122.423 22.8265 122.496 22.7494 122.583 22.6919C122.683 22.6358 122.796 22.6088 122.909 22.6139C123.065 22.6209 123.214 22.6758 123.336 22.7709C123.485 22.8763 123.667 22.9923 123.881 23.119C124.127 23.2608 124.387 23.3774 124.656 23.4669C125.025 23.5815 125.41 23.6345 125.796 23.6239C126.143 23.6305 126.489 23.5792 126.818 23.4719C127.087 23.3847 127.335 23.2454 127.549 23.0619C127.737 22.8975 127.885 22.6923 127.981 22.462C128.075 22.234 128.123 21.9895 128.121 21.7429C128.132 21.4609 128.043 21.1841 127.868 20.962C127.684 20.7425 127.456 20.5626 127.2 20.4329C126.896 20.2764 126.578 20.1488 126.25 20.0519C125.894 19.9426 125.531 19.8283 125.161 19.7089C124.791 19.5896 124.428 19.4529 124.071 19.2989C123.728 19.1534 123.408 18.9583 123.121 18.7199C122.841 18.4837 122.613 18.191 122.453 17.8609C122.275 17.4722 122.189 17.0475 122.201 16.6199C122.201 16.1878 122.293 15.7605 122.471 15.367C122.654 14.9621 122.922 14.6018 123.257 14.311C123.631 13.9911 124.061 13.7454 124.526 13.587C125.08 13.3987 125.661 13.3073 126.245 13.3169C126.934 13.3061 127.619 13.4263 128.262 13.671C128.835 13.8927 129.36 14.2227 129.807 14.643L129.359 15.378Z" fill="black"/>
</svg>
