<svg xmlns="http://www.w3.org/2000/svg" xmlns:xlink="http://www.w3.org/1999/xlink" width="1920" zoomAndPan="magnify" viewBox="0 0 1440 809.999993" height="1080" preserveAspectRatio="xMidYMid meet" version="1.0"><path fill="#000000" d="M 132.675781 560.765625 L 118.34375 560.765625 L 118.4375 553.367188 L 132.675781 553.367188 C 137.582031 553.367188 141.667969 552.347656 144.9375 550.304688 C 148.203125 548.230469 150.65625 545.339844 152.289062 541.632812 C 153.957031 537.894531 154.789062 533.53125 154.789062 528.535156 L 154.789062 524.339844 C 154.789062 520.414062 154.316406 516.929688 153.375 513.882812 C 152.433594 510.800781 151.050781 508.210938 149.226562 506.105469 C 147.402344 503.96875 145.171875 502.351562 142.53125 501.253906 C 139.921875 500.152344 136.921875 499.605469 133.527344 499.605469 L 118.0625 499.605469 L 118.0625 492.160156 L 133.527344 492.160156 C 138.019531 492.160156 142.121094 492.914062 145.832031 494.421875 C 149.539062 495.898438 152.730469 498.050781 155.402344 500.875 C 158.105469 503.671875 160.179688 507.066406 161.625 511.054688 C 163.074219 515.011719 163.796875 519.472656 163.796875 524.4375 L 163.796875 528.535156 C 163.796875 533.5 163.074219 537.976562 161.625 541.964844 C 160.179688 545.921875 158.089844 549.300781 155.355469 552.09375 C 152.652344 554.890625 149.382812 557.042969 145.546875 558.550781 C 141.746094 560.027344 137.453125 560.765625 132.675781 560.765625 Z M 123.199219 492.160156 L 123.199219 560.765625 L 114.101562 560.765625 L 114.101562 492.160156 Z M 173.835938 535.839844 L 173.835938 534.753906 C 173.835938 531.082031 174.371094 527.671875 175.441406 524.53125 C 176.507812 521.359375 178.050781 518.609375 180.0625 516.285156 C 182.074219 513.929688 184.507812 512.105469 187.371094 510.820312 C 190.230469 509.5 193.4375 508.839844 196.988281 508.839844 C 200.570312 508.839844 203.792969 509.5 206.652344 510.820312 C 209.542969 512.105469 211.996094 513.929688 214.007812 516.285156 C 216.050781 518.609375 217.609375 521.359375 218.675781 524.53125 C 219.746094 527.671875 220.28125 531.082031 220.28125 534.753906 L 220.28125 535.839844 C 220.28125 539.515625 219.746094 542.921875 218.675781 546.0625 C 217.609375 549.203125 216.050781 551.953125 214.007812 554.308594 C 211.996094 556.632812 209.558594 558.457031 206.699219 559.777344 C 203.871094 561.0625 200.664062 561.707031 197.082031 561.707031 C 193.5 561.707031 190.277344 561.0625 187.417969 559.777344 C 184.554688 558.457031 182.105469 556.632812 180.0625 554.308594 C 178.050781 551.953125 176.507812 549.203125 175.441406 546.0625 C 174.371094 542.921875 173.835938 539.515625 173.835938 535.839844 Z M 182.558594 534.753906 L 182.558594 535.839844 C 182.558594 538.382812 182.859375 540.785156 183.457031 543.046875 C 184.054688 545.277344 184.949219 547.257812 186.144531 548.984375 C 187.371094 550.714844 188.894531 552.078125 190.714844 553.085938 C 192.539062 554.058594 194.660156 554.546875 197.082031 554.546875 C 199.472656 554.546875 201.5625 554.058594 203.351562 553.085938 C 205.175781 552.078125 206.683594 550.714844 207.878906 548.984375 C 209.074219 547.257812 209.96875 545.277344 210.566406 543.046875 C 211.195312 540.785156 211.511719 538.382812 211.511719 535.839844 L 211.511719 534.753906 C 211.511719 532.242188 211.195312 529.871094 210.566406 527.640625 C 209.96875 525.378906 209.058594 523.382812 207.832031 521.65625 C 206.636719 519.898438 205.128906 518.515625 203.304688 517.507812 C 201.515625 516.503906 199.40625 516.003906 196.988281 516.003906 C 194.597656 516.003906 192.492188 516.503906 190.671875 517.507812 C 188.878906 518.515625 187.371094 519.898438 186.144531 521.65625 C 184.949219 523.382812 184.054688 525.378906 183.457031 527.640625 C 182.859375 529.871094 182.558594 532.242188 182.558594 534.753906 Z M 240.695312 509.78125 L 240.695312 560.765625 L 231.925781 560.765625 L 231.925781 509.78125 Z M 231.265625 496.257812 C 231.265625 494.84375 231.6875 493.652344 232.539062 492.679688 C 233.417969 491.703125 234.707031 491.21875 236.402344 491.21875 C 238.070312 491.21875 239.34375 491.703125 240.222656 492.679688 C 241.132812 493.652344 241.589844 494.84375 241.589844 496.257812 C 241.589844 497.609375 241.132812 498.773438 240.222656 499.746094 C 239.34375 500.6875 238.070312 501.160156 236.402344 501.160156 C 234.707031 501.160156 233.417969 500.6875 232.539062 499.746094 C 231.6875 498.773438 231.265625 497.609375 231.265625 496.257812 Z M 263.417969 520.667969 L 263.417969 560.765625 L 254.695312 560.765625 L 254.695312 509.78125 L 262.949219 509.78125 Z M 261.34375 533.339844 L 257.714844 533.199219 C 257.746094 529.714844 258.265625 526.492188 259.269531 523.539062 C 260.277344 520.558594 261.691406 517.964844 263.515625 515.765625 C 265.335938 513.566406 267.503906 511.871094 270.019531 510.675781 C 272.566406 509.453125 275.378906 508.839844 278.460938 508.839844 C 280.976562 508.839844 283.238281 509.183594 285.25 509.875 C 287.261719 510.535156 288.972656 511.605469 290.386719 513.082031 C 291.835938 514.554688 292.933594 516.472656 293.6875 518.828125 C 294.441406 521.152344 294.820312 523.996094 294.820312 527.355469 L 294.820312 560.765625 L 286.050781 560.765625 L 286.050781 527.261719 C 286.050781 524.59375 285.65625 522.457031 284.871094 520.855469 C 284.085938 519.222656 282.9375 518.042969 281.429688 517.320312 C 279.921875 516.566406 278.066406 516.191406 275.867188 516.191406 C 273.699219 516.191406 271.71875 516.644531 269.925781 517.558594 C 268.167969 518.46875 266.640625 519.722656 265.351562 521.324219 C 264.09375 522.929688 263.105469 524.765625 262.382812 526.839844 C 261.691406 528.882812 261.34375 531.046875 261.34375 533.339844 Z M 341.121094 509.78125 L 349.042969 509.78125 L 349.042969 559.679688 C 349.042969 564.171875 348.128906 568.007812 346.304688 571.179688 C 344.484375 574.351562 341.9375 576.753906 338.667969 578.386719 C 335.429688 580.050781 331.691406 580.886719 327.449219 580.886719 C 325.6875 580.886719 323.613281 580.601562 321.222656 580.035156 C 318.867188 579.503906 316.539062 578.574219 314.246094 577.257812 C 311.980469 575.96875 310.082031 574.226562 308.539062 572.027344 L 313.113281 566.84375 C 315.25 569.417969 317.484375 571.210938 319.808594 572.214844 C 322.167969 573.21875 324.492188 573.722656 326.785156 573.722656 C 329.554688 573.722656 331.941406 573.203125 333.953125 572.167969 C 335.964844 571.132812 337.519531 569.589844 338.621094 567.550781 C 339.753906 565.539062 340.320312 563.058594 340.320312 560.105469 L 340.320312 520.996094 Z M 305.996094 535.839844 L 305.996094 534.847656 C 305.996094 530.953125 306.449219 527.421875 307.363281 524.246094 C 308.304688 521.042969 309.640625 518.296875 311.371094 516.003906 C 313.128906 513.707031 315.25 511.949219 317.734375 510.722656 C 320.21875 509.46875 323.015625 508.839844 326.128906 508.839844 C 329.332031 508.839844 332.128906 509.40625 334.519531 510.535156 C 336.941406 511.636719 338.984375 513.253906 340.648438 515.390625 C 342.347656 517.492188 343.683594 520.039062 344.65625 523.023438 C 345.628906 526.007812 346.304688 529.382812 346.683594 533.152344 L 346.683594 537.488281 C 346.339844 541.226562 345.664062 544.585938 344.65625 547.570312 C 343.683594 550.554688 342.347656 553.101562 340.648438 555.207031 C 338.984375 557.308594 336.941406 558.925781 334.519531 560.058594 C 332.097656 561.15625 329.269531 561.707031 326.03125 561.707031 C 322.984375 561.707031 320.21875 561.0625 317.734375 559.777344 C 315.28125 558.488281 313.175781 556.683594 311.417969 554.355469 C 309.65625 552.03125 308.304688 549.300781 307.363281 546.160156 C 306.449219 542.984375 305.996094 539.546875 305.996094 535.839844 Z M 314.71875 534.847656 L 314.71875 535.839844 C 314.71875 538.382812 314.96875 540.769531 315.472656 543 C 316.007812 545.230469 316.808594 547.195312 317.875 548.890625 C 318.976562 550.585938 320.375 551.921875 322.074219 552.894531 C 323.769531 553.839844 325.796875 554.308594 328.152344 554.308594 C 331.046875 554.308594 333.433594 553.695312 335.320312 552.472656 C 337.207031 551.246094 338.699219 549.628906 339.800781 547.617188 C 340.933594 545.609375 341.8125 543.425781 342.441406 541.070312 L 342.441406 529.714844 C 342.09375 527.984375 341.558594 526.320312 340.835938 524.71875 C 340.144531 523.085938 339.234375 521.640625 338.101562 520.382812 C 337.003906 519.097656 335.636719 518.074219 334 517.320312 C 332.367188 516.566406 330.449219 516.191406 328.25 516.191406 C 325.859375 516.191406 323.800781 516.691406 322.074219 517.699219 C 320.375 518.671875 318.976562 520.023438 317.875 521.75 C 316.808594 523.445312 316.007812 525.425781 315.472656 527.6875 C 314.96875 529.917969 314.71875 532.304688 314.71875 534.847656 Z M 407.601562 509.78125 L 407.601562 516.472656 L 380.015625 516.472656 L 380.015625 509.78125 Z M 389.351562 497.390625 L 398.074219 497.390625 L 398.074219 548.136719 C 398.074219 549.863281 398.34375 551.167969 398.878906 552.046875 C 399.410156 552.929688 400.101562 553.507812 400.953125 553.792969 C 401.800781 554.074219 402.710938 554.214844 403.6875 554.214844 C 404.410156 554.214844 405.164062 554.152344 405.949219 554.027344 C 406.765625 553.871094 407.378906 553.746094 407.789062 553.648438 L 407.835938 560.765625 C 407.144531 560.984375 406.234375 561.1875 405.101562 561.378906 C 404 561.597656 402.664062 561.707031 401.09375 561.707031 C 398.957031 561.707031 396.992188 561.28125 395.199219 560.433594 C 393.40625 559.585938 391.976562 558.171875 390.910156 556.195312 C 389.871094 554.183594 389.351562 551.480469 389.351562 548.089844 Z M 426.554688 488.390625 L 426.554688 560.765625 L 417.832031 560.765625 L 417.832031 488.390625 Z M 424.476562 533.339844 L 420.847656 533.199219 C 420.878906 529.714844 421.398438 526.492188 422.40625 523.539062 C 423.410156 520.558594 424.824219 517.964844 426.648438 515.765625 C 428.46875 513.566406 430.640625 511.871094 433.15625 510.675781 C 435.699219 509.453125 438.511719 508.839844 441.59375 508.839844 C 444.109375 508.839844 446.371094 509.183594 448.382812 509.875 C 450.394531 510.535156 452.105469 511.605469 453.523438 513.082031 C 454.96875 514.554688 456.066406 516.472656 456.820312 518.828125 C 457.578125 521.152344 457.953125 523.996094 457.953125 527.355469 L 457.953125 560.765625 L 449.183594 560.765625 L 449.183594 527.261719 C 449.183594 524.59375 448.792969 522.457031 448.003906 520.855469 C 447.21875 519.222656 446.070312 518.042969 444.5625 517.320312 C 443.054688 516.566406 441.199219 516.191406 439 516.191406 C 436.832031 516.191406 434.851562 516.644531 433.058594 517.558594 C 431.300781 518.46875 429.773438 519.722656 428.488281 521.324219 C 427.230469 522.929688 426.238281 524.765625 425.515625 526.839844 C 424.824219 528.882812 424.476562 531.046875 424.476562 533.339844 Z M 492.183594 561.707031 C 488.632812 561.707031 485.410156 561.109375 482.519531 559.917969 C 479.65625 558.691406 477.191406 556.980469 475.117188 554.78125 C 473.074219 552.582031 471.5 549.976562 470.402344 546.960938 C 469.300781 543.945312 468.75 540.644531 468.75 537.0625 L 468.75 535.085938 C 468.75 530.9375 469.363281 527.246094 470.589844 524.011719 C 471.816406 520.746094 473.480469 517.980469 475.585938 515.71875 C 477.695312 513.457031 480.082031 511.746094 482.753906 510.582031 C 485.425781 509.421875 488.191406 508.839844 491.050781 508.839844 C 494.699219 508.839844 497.839844 509.46875 500.480469 510.722656 C 503.152344 511.980469 505.335938 513.738281 507.035156 516.003906 C 508.734375 518.230469 509.988281 520.871094 510.808594 523.917969 C 511.625 526.933594 512.03125 530.230469 512.03125 533.8125 L 512.03125 537.722656 L 473.9375 537.722656 L 473.9375 530.609375 L 503.3125 530.609375 L 503.3125 529.949219 C 503.183594 527.6875 502.714844 525.488281 501.894531 523.351562 C 501.109375 521.214844 499.851562 519.457031 498.125 518.074219 C 496.394531 516.691406 494.039062 516.003906 491.050781 516.003906 C 489.070312 516.003906 487.25 516.425781 485.582031 517.273438 C 483.917969 518.089844 482.488281 519.316406 481.292969 520.949219 C 480.097656 522.582031 479.171875 524.578125 478.511719 526.933594 C 477.851562 529.289062 477.519531 532.007812 477.519531 535.085938 L 477.519531 537.0625 C 477.519531 539.484375 477.851562 541.761719 478.511719 543.894531 C 479.203125 546 480.191406 547.855469 481.480469 549.457031 C 482.800781 551.058594 484.386719 552.316406 486.242188 553.226562 C 488.128906 554.136719 490.265625 554.59375 492.65625 554.59375 C 495.734375 554.59375 498.34375 553.964844 500.480469 552.707031 C 502.621094 551.453125 504.488281 549.769531 506.09375 547.664062 L 511.371094 551.859375 C 510.273438 553.523438 508.875 555.109375 507.175781 556.617188 C 505.480469 558.125 503.390625 559.351562 500.90625 560.292969 C 498.453125 561.238281 495.546875 561.707031 492.183594 561.707031 Z M 554.890625 517.792969 L 554.890625 560.765625 L 546.167969 560.765625 L 546.167969 509.78125 L 554.65625 509.78125 Z M 570.828125 509.5 L 570.78125 517.605469 C 570.058594 517.445312 569.367188 517.351562 568.707031 517.320312 C 568.078125 517.257812 567.355469 517.226562 566.535156 517.226562 C 564.523438 517.226562 562.75 517.542969 561.210938 518.167969 C 559.667969 518.796875 558.363281 519.675781 557.296875 520.808594 C 556.226562 521.9375 555.378906 523.289062 554.75 524.859375 C 554.152344 526.398438 553.757812 528.09375 553.570312 529.949219 L 551.121094 531.363281 C 551.121094 528.285156 551.417969 525.394531 552.015625 522.691406 C 552.644531 519.992188 553.601562 517.605469 554.890625 515.53125 C 556.179688 513.425781 557.8125 511.792969 559.792969 510.628906 C 561.804688 509.4375 564.195312 508.839844 566.960938 508.839844 C 567.589844 508.839844 568.3125 508.917969 569.128906 509.074219 C 569.945312 509.199219 570.511719 509.34375 570.828125 509.5 Z M 588.367188 509.78125 L 588.367188 560.765625 L 579.597656 560.765625 L 579.597656 509.78125 Z M 578.9375 496.257812 C 578.9375 494.84375 579.363281 493.652344 580.210938 492.679688 C 581.089844 491.703125 582.378906 491.21875 584.074219 491.21875 C 585.742188 491.21875 587.015625 491.703125 587.894531 492.679688 C 588.804688 493.652344 589.261719 494.84375 589.261719 496.257812 C 589.261719 497.609375 588.804688 498.773438 587.894531 499.746094 C 587.015625 500.6875 585.742188 501.160156 584.074219 501.160156 C 582.378906 501.160156 581.089844 500.6875 580.210938 499.746094 C 579.363281 498.773438 578.9375 497.609375 578.9375 496.257812 Z M 635.421875 509.78125 L 643.339844 509.78125 L 643.339844 559.679688 C 643.339844 564.171875 642.429688 568.007812 640.605469 571.179688 C 638.785156 574.351562 636.238281 576.753906 632.96875 578.386719 C 629.730469 580.050781 625.992188 580.886719 621.746094 580.886719 C 619.988281 580.886719 617.914062 580.601562 615.523438 580.035156 C 613.167969 579.503906 610.839844 578.574219 608.546875 577.257812 C 606.28125 575.96875 604.382812 574.226562 602.839844 572.027344 L 607.414062 566.84375 C 609.550781 569.417969 611.785156 571.210938 614.109375 572.214844 C 616.464844 573.21875 618.792969 573.722656 621.085938 573.722656 C 623.851562 573.722656 626.242188 573.203125 628.253906 572.167969 C 630.265625 571.132812 631.820312 569.589844 632.921875 567.550781 C 634.054688 565.539062 634.617188 563.058594 634.617188 560.105469 L 634.617188 520.996094 Z M 600.292969 535.839844 L 600.292969 534.847656 C 600.292969 530.953125 600.75 527.421875 601.660156 524.246094 C 602.605469 521.042969 603.941406 518.296875 605.671875 516.003906 C 607.429688 513.707031 609.550781 511.949219 612.035156 510.722656 C 614.519531 509.46875 617.316406 508.839844 620.425781 508.839844 C 623.632812 508.839844 626.429688 509.40625 628.820312 510.535156 C 631.238281 511.636719 633.285156 513.253906 634.949219 515.390625 C 636.648438 517.492188 637.980469 520.039062 638.957031 523.023438 C 639.929688 526.007812 640.605469 529.382812 640.984375 533.152344 L 640.984375 537.488281 C 640.636719 541.226562 639.960938 544.585938 638.957031 547.570312 C 637.980469 550.554688 636.648438 553.101562 634.949219 555.207031 C 633.285156 557.308594 631.238281 558.925781 628.820312 560.058594 C 626.398438 561.15625 623.570312 561.707031 620.332031 561.707031 C 617.285156 561.707031 614.519531 561.0625 612.035156 559.777344 C 609.582031 558.488281 607.476562 556.683594 605.71875 554.355469 C 603.957031 552.03125 602.605469 549.300781 601.660156 546.160156 C 600.75 542.984375 600.292969 539.546875 600.292969 535.839844 Z M 609.015625 534.847656 L 609.015625 535.839844 C 609.015625 538.382812 609.269531 540.769531 609.773438 543 C 610.304688 545.230469 611.109375 547.195312 612.175781 548.890625 C 613.277344 550.585938 614.675781 551.921875 616.371094 552.894531 C 618.070312 553.839844 620.097656 554.308594 622.453125 554.308594 C 625.347656 554.308594 627.734375 553.695312 629.621094 552.472656 C 631.507812 551.246094 633 549.628906 634.101562 547.617188 C 635.230469 545.609375 636.113281 543.425781 636.742188 541.070312 L 636.742188 529.714844 C 636.394531 527.984375 635.859375 526.320312 635.136719 524.71875 C 634.445312 523.085938 633.535156 521.640625 632.402344 520.382812 C 631.304688 519.097656 629.9375 518.074219 628.300781 517.320312 C 626.667969 516.566406 624.75 516.191406 622.550781 516.191406 C 620.160156 516.191406 618.101562 516.691406 616.371094 517.699219 C 614.675781 518.671875 613.277344 520.023438 612.175781 521.75 C 611.109375 523.445312 610.304688 525.425781 609.773438 527.6875 C 609.269531 529.917969 609.015625 532.304688 609.015625 534.847656 Z M 665.3125 488.390625 L 665.3125 560.765625 L 656.589844 560.765625 L 656.589844 488.390625 Z M 663.238281 533.339844 L 659.609375 533.199219 C 659.640625 529.714844 660.15625 526.492188 661.164062 523.539062 C 662.167969 520.558594 663.582031 517.964844 665.40625 515.765625 C 667.230469 513.566406 669.398438 511.871094 671.914062 510.675781 C 674.460938 509.453125 677.273438 508.839844 680.351562 508.839844 C 682.867188 508.839844 685.128906 509.183594 687.144531 509.875 C 689.152344 510.535156 690.867188 511.605469 692.28125 513.082031 C 693.726562 514.554688 694.828125 516.472656 695.582031 518.828125 C 696.335938 521.152344 696.714844 523.996094 696.714844 527.355469 L 696.714844 560.765625 L 687.945312 560.765625 L 687.945312 527.261719 C 687.945312 524.59375 687.550781 522.457031 686.765625 520.855469 C 685.980469 519.222656 684.832031 518.042969 683.324219 517.320312 C 681.8125 516.566406 679.960938 516.191406 677.761719 516.191406 C 675.589844 516.191406 673.609375 516.644531 671.820312 517.558594 C 670.058594 518.46875 668.535156 519.722656 667.246094 521.324219 C 665.988281 522.929688 665 524.765625 664.273438 526.839844 C 663.582031 528.882812 663.238281 531.046875 663.238281 533.339844 Z M 731.132812 509.78125 L 731.132812 516.472656 L 703.550781 516.472656 L 703.550781 509.78125 Z M 712.886719 497.390625 L 721.609375 497.390625 L 721.609375 548.136719 C 721.609375 549.863281 721.875 551.167969 722.410156 552.046875 C 722.945312 552.929688 723.636719 553.507812 724.484375 553.792969 C 725.332031 554.074219 726.242188 554.214844 727.21875 554.214844 C 727.941406 554.214844 728.695312 554.152344 729.480469 554.027344 C 730.300781 553.871094 730.910156 553.746094 731.320312 553.648438 L 731.367188 560.765625 C 730.675781 560.984375 729.765625 561.1875 728.632812 561.378906 C 727.53125 561.597656 726.195312 561.707031 724.625 561.707031 C 722.488281 561.707031 720.523438 561.28125 718.730469 560.433594 C 716.941406 559.585938 715.511719 558.171875 714.441406 556.195312 C 713.402344 554.183594 712.886719 551.480469 712.886719 548.089844 Z M 786.671875 509.78125 L 786.671875 516.472656 L 759.089844 516.472656 L 759.089844 509.78125 Z M 768.425781 497.390625 L 777.148438 497.390625 L 777.148438 548.136719 C 777.148438 549.863281 777.414062 551.167969 777.949219 552.046875 C 778.484375 552.929688 779.175781 553.507812 780.023438 553.792969 C 780.875 554.074219 781.785156 554.214844 782.757812 554.214844 C 783.480469 554.214844 784.238281 554.152344 785.023438 554.027344 C 785.839844 553.871094 786.453125 553.746094 786.859375 553.648438 L 786.910156 560.765625 C 786.21875 560.984375 785.304688 561.1875 784.171875 561.378906 C 783.074219 561.597656 781.738281 561.707031 780.167969 561.707031 C 778.027344 561.707031 776.066406 561.28125 774.273438 560.433594 C 772.480469 559.585938 771.050781 558.171875 769.980469 556.195312 C 768.945312 554.183594 768.425781 551.480469 768.425781 548.089844 Z M 805.625 488.390625 L 805.625 560.765625 L 796.902344 560.765625 L 796.902344 488.390625 Z M 803.550781 533.339844 L 799.921875 533.199219 C 799.953125 529.714844 800.472656 526.492188 801.476562 523.539062 C 802.484375 520.558594 803.898438 517.964844 805.71875 515.765625 C 807.542969 513.566406 809.710938 511.871094 812.226562 510.675781 C 814.773438 509.453125 817.585938 508.839844 820.667969 508.839844 C 823.179688 508.839844 825.445312 509.183594 827.457031 509.875 C 829.46875 510.535156 831.179688 511.605469 832.59375 513.082031 C 834.042969 514.554688 835.140625 516.472656 835.894531 518.828125 C 836.648438 521.152344 837.027344 523.996094 837.027344 527.355469 L 837.027344 560.765625 L 828.257812 560.765625 L 828.257812 527.261719 C 828.257812 524.59375 827.863281 522.457031 827.078125 520.855469 C 826.292969 519.222656 825.144531 518.042969 823.636719 517.320312 C 822.128906 516.566406 820.273438 516.191406 818.074219 516.191406 C 815.902344 516.191406 813.925781 516.644531 812.132812 517.558594 C 810.371094 518.46875 808.847656 519.722656 807.558594 521.324219 C 806.300781 522.929688 805.3125 524.765625 804.589844 526.839844 C 803.898438 528.882812 803.550781 531.046875 803.550781 533.339844 Z M 859.5625 509.78125 L 859.5625 560.765625 L 850.792969 560.765625 L 850.792969 509.78125 Z M 850.132812 496.257812 C 850.132812 494.84375 850.558594 493.652344 851.40625 492.679688 C 852.285156 491.703125 853.578125 491.21875 855.273438 491.21875 C 856.9375 491.21875 858.210938 491.703125 859.09375 492.679688 C 860.003906 493.652344 860.460938 494.84375 860.460938 496.257812 C 860.460938 497.609375 860.003906 498.773438 859.09375 499.746094 C 858.210938 500.6875 856.9375 501.160156 855.273438 501.160156 C 853.578125 501.160156 852.285156 500.6875 851.40625 499.746094 C 850.558594 498.773438 850.132812 497.609375 850.132812 496.257812 Z M 882.289062 520.667969 L 882.289062 560.765625 L 873.566406 560.765625 L 873.566406 509.78125 L 881.816406 509.78125 Z M 880.214844 533.339844 L 876.585938 533.199219 C 876.617188 529.714844 877.136719 526.492188 878.140625 523.539062 C 879.144531 520.558594 880.5625 517.964844 882.382812 515.765625 C 884.207031 513.566406 886.375 511.871094 888.890625 510.675781 C 891.4375 509.453125 894.25 508.839844 897.328125 508.839844 C 899.84375 508.839844 902.105469 509.183594 904.121094 509.875 C 906.128906 510.535156 907.84375 511.605469 909.257812 513.082031 C 910.703125 514.554688 911.804688 516.472656 912.558594 518.828125 C 913.3125 521.152344 913.691406 523.996094 913.691406 527.355469 L 913.691406 560.765625 L 904.921875 560.765625 L 904.921875 527.261719 C 904.921875 524.59375 904.527344 522.457031 903.742188 520.855469 C 902.957031 519.222656 901.808594 518.042969 900.300781 517.320312 C 898.792969 516.566406 896.9375 516.191406 894.738281 516.191406 C 892.566406 516.191406 890.585938 516.644531 888.796875 517.558594 C 887.035156 518.46875 885.511719 519.722656 884.222656 521.324219 C 882.964844 522.929688 881.976562 524.765625 881.253906 526.839844 C 880.5625 528.882812 880.214844 531.046875 880.214844 533.339844 Z M 959.988281 509.78125 L 967.910156 509.78125 L 967.910156 559.679688 C 967.910156 564.171875 967 568.007812 965.175781 571.179688 C 963.351562 574.351562 960.808594 576.753906 957.539062 578.386719 C 954.300781 580.050781 950.558594 580.886719 946.316406 580.886719 C 944.558594 580.886719 942.484375 580.601562 940.09375 580.035156 C 937.734375 579.503906 935.410156 578.574219 933.117188 577.257812 C 930.851562 575.96875 928.949219 574.226562 927.410156 572.027344 L 931.984375 566.84375 C 934.121094 569.417969 936.351562 571.210938 938.679688 572.214844 C 941.035156 573.21875 943.363281 573.722656 945.65625 573.722656 C 948.421875 573.722656 950.8125 573.203125 952.824219 572.167969 C 954.835938 571.132812 956.390625 569.589844 957.492188 567.550781 C 958.621094 565.539062 959.1875 563.058594 959.1875 560.105469 L 959.1875 520.996094 Z M 924.863281 535.839844 L 924.863281 534.847656 C 924.863281 530.953125 925.320312 527.421875 926.230469 524.246094 C 927.175781 521.042969 928.511719 518.296875 930.238281 516.003906 C 932 513.707031 934.121094 511.949219 936.605469 510.722656 C 939.085938 509.46875 941.886719 508.839844 944.996094 508.839844 C 948.203125 508.839844 951 509.40625 953.390625 510.535156 C 955.808594 511.636719 957.851562 513.253906 959.519531 515.390625 C 961.214844 517.492188 962.550781 520.039062 963.527344 523.023438 C 964.5 526.007812 965.175781 529.382812 965.554688 533.152344 L 965.554688 537.488281 C 965.207031 541.226562 964.53125 544.585938 963.527344 547.570312 C 962.550781 550.554688 961.214844 553.101562 959.519531 555.207031 C 957.851562 557.308594 955.808594 558.925781 953.390625 560.058594 C 950.96875 561.15625 948.140625 561.707031 944.902344 561.707031 C 941.851562 561.707031 939.085938 561.0625 936.605469 559.777344 C 934.152344 558.488281 932.046875 556.683594 930.285156 554.355469 C 928.527344 552.03125 927.175781 549.300781 926.230469 546.160156 C 925.320312 542.984375 924.863281 539.546875 924.863281 535.839844 Z M 933.585938 534.847656 L 933.585938 535.839844 C 933.585938 538.382812 933.839844 540.769531 934.339844 543 C 934.875 545.230469 935.675781 547.195312 936.746094 548.890625 C 937.847656 550.585938 939.246094 551.921875 940.941406 552.894531 C 942.640625 553.839844 944.667969 554.308594 947.023438 554.308594 C 949.914062 554.308594 952.304688 553.695312 954.191406 552.472656 C 956.078125 551.246094 957.570312 549.628906 958.671875 547.617188 C 959.800781 545.609375 960.679688 543.425781 961.308594 541.070312 L 961.308594 529.714844 C 960.964844 527.984375 960.429688 526.320312 959.707031 524.71875 C 959.015625 523.085938 958.105469 521.640625 956.972656 520.382812 C 955.871094 519.097656 954.503906 518.074219 952.871094 517.320312 C 951.234375 516.566406 949.320312 516.191406 947.117188 516.191406 C 944.730469 516.191406 942.671875 516.691406 940.941406 517.699219 C 939.246094 518.671875 937.847656 520.023438 936.746094 521.75 C 935.675781 523.445312 934.875 525.425781 934.339844 527.6875 C 933.839844 529.917969 933.585938 532.304688 933.585938 534.847656 Z M 981.300781 556.148438 C 981.300781 554.671875 981.757812 553.429688 982.667969 552.425781 C 983.613281 551.386719 984.964844 550.871094 986.722656 550.871094 C 988.484375 550.871094 989.820312 551.386719 990.730469 552.425781 C 991.675781 553.429688 992.144531 554.671875 992.144531 556.148438 C 992.144531 557.59375 991.675781 558.816406 990.730469 559.824219 C 989.820312 560.828125 988.484375 561.332031 986.722656 561.332031 C 984.964844 561.332031 983.613281 560.828125 982.667969 559.824219 C 981.757812 558.816406 981.300781 557.59375 981.300781 556.148438 Z M 1057.304688 498.238281 L 1034.578125 560.765625 L 1025.289062 560.765625 L 1051.460938 492.160156 L 1057.449219 492.160156 Z M 1076.355469 560.765625 L 1053.574219 498.238281 L 1053.441406 492.160156 L 1059.425781 492.160156 L 1085.691406 560.765625 Z M 1075.175781 535.367188 L 1075.175781 542.8125 L 1036.605469 542.8125 L 1036.605469 535.367188 Z M 1103.035156 488.390625 L 1103.035156 560.765625 L 1094.265625 560.765625 L 1094.265625 488.390625 Z M 1129.964844 551.71875 L 1143.066406 509.78125 L 1148.824219 509.78125 L 1147.683594 518.121094 L 1134.347656 560.765625 L 1128.738281 560.765625 Z M 1121.140625 509.78125 L 1132.320312 552.191406 L 1133.121094 560.765625 L 1127.222656 560.765625 L 1112.417969 509.78125 Z M 1161.355469 551.859375 L 1172.015625 509.78125 L 1180.6875 509.78125 L 1165.882812 560.765625 L 1160.042969 560.765625 Z M 1150.097656 509.78125 L 1162.921875 551.011719 L 1164.378906 560.765625 L 1158.816406 560.765625 L 1145.09375 518.027344 L 1143.964844 509.78125 Z M 1219.726562 552.046875 L 1219.726562 525.800781 C 1219.726562 523.792969 1219.320312 522.046875 1218.5 520.574219 C 1217.71875 519.0625 1216.519531 517.902344 1214.917969 517.085938 C 1213.316406 516.269531 1211.335938 515.859375 1208.980469 515.859375 C 1206.777344 515.859375 1204.847656 516.238281 1203.1875 516.992188 C 1201.542969 517.746094 1200.261719 518.734375 1199.3125 519.960938 C 1198.40625 521.183594 1197.953125 522.503906 1197.953125 523.917969 L 1189.222656 523.917969 C 1189.222656 522.097656 1189.695312 520.289062 1190.640625 518.5 C 1191.578125 516.707031 1192.929688 515.089844 1194.699219 513.644531 C 1196.484375 512.167969 1198.628906 511.007812 1201.109375 510.160156 C 1203.621094 509.277344 1206.421875 508.839844 1209.5 508.839844 C 1213.207031 508.839844 1216.480469 509.46875 1219.300781 510.722656 C 1222.167969 511.980469 1224.398438 513.882812 1226.003906 516.425781 C 1227.632812 518.9375 1228.457031 522.097656 1228.457031 525.898438 L 1228.457031 549.644531 C 1228.457031 551.339844 1228.589844 553.148438 1228.878906 555.0625 C 1229.1875 556.980469 1229.644531 558.628906 1230.242188 560.011719 L 1230.242188 560.765625 L 1221.144531 560.765625 C 1220.703125 559.761719 1220.363281 558.425781 1220.101562 556.761719 C 1219.851562 555.0625 1219.726562 553.492188 1219.726562 552.046875 Z M 1221.242188 529.855469 L 1221.328125 535.980469 L 1212.511719 535.980469 C 1210.03125 535.980469 1207.820312 536.183594 1205.871094 536.59375 C 1203.917969 536.96875 1202.289062 537.550781 1200.964844 538.335938 C 1199.640625 539.121094 1198.636719 540.109375 1197.953125 541.304688 C 1197.257812 542.46875 1196.910156 543.832031 1196.910156 545.402344 C 1196.910156 547.007812 1197.277344 548.464844 1197.992188 549.785156 C 1198.714844 551.105469 1199.804688 552.15625 1201.246094 552.941406 C 1202.722656 553.695312 1204.539062 554.074219 1206.671875 554.074219 C 1209.347656 554.074219 1211.703125 553.507812 1213.738281 552.378906 C 1215.785156 551.246094 1217.410156 549.863281 1218.597656 548.230469 C 1219.824219 546.597656 1220.488281 545.011719 1220.578125 543.472656 L 1224.304688 547.664062 C 1224.082031 548.984375 1223.484375 550.445312 1222.515625 552.046875 C 1221.542969 553.648438 1220.238281 555.1875 1218.597656 556.664062 C 1216.992188 558.109375 1215.082031 559.320312 1212.851562 560.292969 C 1210.648438 561.238281 1208.167969 561.707031 1205.398438 561.707031 C 1201.941406 561.707031 1198.90625 561.03125 1196.300781 559.679688 C 1193.722656 558.332031 1191.703125 556.523438 1190.265625 554.261719 C 1188.847656 551.96875 1188.140625 549.410156 1188.140625 546.582031 C 1188.140625 543.847656 1188.671875 541.445312 1189.746094 539.371094 C 1190.816406 537.269531 1192.351562 535.523438 1194.359375 534.140625 C 1196.378906 532.730469 1198.792969 531.660156 1201.621094 530.9375 C 1204.449219 530.214844 1207.617188 529.855469 1211.105469 529.855469 Z M 1255.753906 555.488281 L 1269.945312 509.78125 L 1279.273438 509.78125 L 1258.8125 568.632812 C 1258.339844 569.890625 1257.714844 571.242188 1256.929688 572.6875 C 1256.179688 574.164062 1255.203125 575.558594 1254.003906 576.878906 C 1252.816406 578.199219 1251.367188 579.265625 1249.667969 580.082031 C 1248 580.933594 1246.011719 581.355469 1243.683594 581.355469 C 1242.988281 581.355469 1242.109375 581.261719 1241.039062 581.074219 C 1239.976562 580.886719 1239.222656 580.726562 1238.777344 580.601562 L 1238.730469 573.535156 C 1238.980469 573.566406 1239.375 573.597656 1239.90625 573.628906 C 1240.476562 573.691406 1240.875 573.722656 1241.085938 573.722656 C 1243.066406 573.722656 1244.753906 573.457031 1246.136719 572.921875 C 1247.515625 572.417969 1248.675781 571.554688 1249.621094 570.328125 C 1250.597656 569.136719 1251.425781 567.488281 1252.121094 565.382812 Z M 1245.335938 509.78125 L 1258.582031 549.363281 L 1260.839844 558.550781 L 1254.574219 561.753906 L 1235.804688 509.78125 Z M 1316.855469 547.242188 C 1316.855469 545.984375 1316.574219 544.824219 1316.007812 543.753906 C 1315.476562 542.65625 1314.355469 541.667969 1312.65625 540.785156 C 1310.996094 539.875 1308.476562 539.089844 1305.113281 538.429688 C 1302.285156 537.832031 1299.726562 537.125 1297.429688 536.308594 C 1295.167969 535.492188 1293.238281 534.503906 1291.632812 533.339844 C 1290.0625 532.179688 1288.855469 530.8125 1288.003906 529.242188 C 1287.152344 527.671875 1286.730469 525.832031 1286.730469 523.730469 C 1286.730469 521.71875 1287.164062 519.820312 1288.050781 518.027344 C 1288.960938 516.238281 1290.234375 514.652344 1291.867188 513.269531 C 1293.535156 511.886719 1295.527344 510.800781 1297.851562 510.015625 C 1300.179688 509.234375 1302.777344 508.839844 1305.636719 508.839844 C 1309.71875 508.839844 1313.207031 509.5625 1316.101562 511.007812 C 1318.988281 512.453125 1321.210938 514.382812 1322.746094 516.804688 C 1324.292969 519.191406 1325.0625 521.84375 1325.0625 524.765625 L 1316.335938 524.765625 C 1316.335938 523.351562 1315.910156 521.984375 1315.058594 520.667969 C 1314.25 519.316406 1313.042969 518.199219 1311.429688 517.320312 C 1309.863281 516.441406 1307.933594 516.003906 1305.636719 516.003906 C 1303.210938 516.003906 1301.25 516.378906 1299.746094 517.132812 C 1298.269531 517.855469 1297.175781 518.78125 1296.492188 519.914062 C 1295.824219 521.042969 1295.496094 522.238281 1295.496094 523.492188 C 1295.496094 524.4375 1295.652344 525.285156 1295.96875 526.039062 C 1296.316406 526.761719 1296.917969 527.4375 1297.757812 528.066406 C 1298.605469 528.660156 1299.804688 529.226562 1301.347656 529.761719 C 1302.882812 530.292969 1304.855469 530.828125 1307.238281 531.363281 C 1311.417969 532.304688 1314.855469 533.4375 1317.5625 534.753906 C 1320.265625 536.074219 1322.28125 537.691406 1323.597656 539.609375 C 1324.917969 541.523438 1325.574219 543.847656 1325.574219 546.582031 C 1325.574219 548.8125 1325.113281 550.855469 1324.164062 552.707031 C 1323.25 554.5625 1321.914062 556.164062 1320.160156 557.511719 C 1318.429688 558.832031 1316.355469 559.871094 1313.929688 560.625 C 1311.546875 561.347656 1308.859375 561.707031 1305.867188 561.707031 C 1301.378906 561.707031 1297.574219 560.90625 1294.464844 559.304688 C 1291.34375 557.703125 1288.988281 555.628906 1287.386719 553.085938 C 1285.78125 550.539062 1284.980469 547.855469 1284.980469 545.027344 L 1293.75 545.027344 C 1293.875 547.414062 1294.570312 549.316406 1295.824219 550.730469 C 1297.082031 552.109375 1298.625 553.101562 1300.449219 553.695312 C 1302.277344 554.261719 1304.082031 554.546875 1305.867188 554.546875 C 1308.261719 554.546875 1310.25 554.230469 1311.855469 553.601562 C 1313.496094 552.972656 1314.730469 552.109375 1315.582031 551.011719 C 1316.429688 549.914062 1316.855469 548.65625 1316.855469 547.242188 Z M 1337.183594 556.148438 C 1337.183594 554.671875 1337.636719 553.429688 1338.542969 552.425781 C 1339.488281 551.386719 1340.839844 550.871094 1342.597656 550.871094 C 1344.355469 550.871094 1345.699219 551.386719 1346.605469 552.425781 C 1347.550781 553.429688 1348.027344 554.671875 1348.027344 556.148438 C 1348.027344 557.59375 1347.550781 558.816406 1346.605469 559.824219 C 1345.699219 560.828125 1344.355469 561.332031 1342.597656 561.332031 C 1340.839844 561.332031 1339.488281 560.828125 1338.542969 559.824219 C 1337.636719 558.816406 1337.183594 557.59375 1337.183594 556.148438 Z M 1337.183594 556.148438 " fill-opacity="1" fill-rule="nonzero"/><path fill="#000000" d="M 197.210938 196.78125 L 142.066406 289.796875 C 140.65625 292.121094 138.671875 294.042969 136.304688 295.375 C 133.9375 296.707031 131.265625 297.410156 128.546875 297.410156 C 125.828125 297.410156 123.15625 296.707031 120.789062 295.375 C 118.421875 294.042969 116.4375 292.121094 115.027344 289.796875 L 86.910156 242.367188 C 84.210938 237.695312 82.804688 232.390625 82.835938 226.996094 C 82.867188 221.601562 84.335938 216.3125 87.085938 211.671875 C 89.839844 207.03125 93.777344 203.207031 98.5 200.589844 C 103.21875 197.972656 108.550781 196.660156 113.949219 196.78125 Z M 197.210938 196.78125 " fill-opacity="1" fill-rule="nonzero"/><path fill="#000000" d="M 128.558594 312.589844 L 188.917969 414.398438 C 191.734375 419.042969 195.703125 422.886719 200.4375 425.550781 C 205.171875 428.21875 210.519531 429.621094 215.953125 429.621094 C 221.390625 429.621094 226.734375 428.21875 231.46875 425.550781 C 236.203125 422.886719 240.171875 419.042969 242.992188 414.398438 L 344.96875 242.367188 C 347.664062 237.695312 349.070312 232.390625 349.042969 226.996094 C 349.007812 221.601562 347.542969 216.3125 344.789062 211.671875 C 342.039062 207.03125 338.101562 203.207031 333.378906 200.589844 C 328.660156 197.972656 323.328125 196.660156 317.929688 196.78125 L 216.117188 196.78125 L 153.625 302.199219 C 151.023438 306.730469 146.730469 310.042969 141.683594 311.410156 C 136.640625 312.777344 131.257812 312.089844 126.722656 309.492188 Z M 128.558594 312.589844 " fill-opacity="1" fill-rule="nonzero"/><path fill="#000000" d="M 376.277344 272.515625 L 393.097656 272.515625 C 394.734375 272.433594 396.347656 272.929688 397.65625 273.914062 C 398.820312 274.863281 399.714844 276.097656 400.265625 277.496094 L 444.199219 387.097656 C 445.265625 389.71875 446.1875 392.394531 446.960938 395.117188 C 447.789062 398.011719 448.601562 401.015625 449.394531 404.121094 C 450.039062 401.015625 450.746094 398.011719 451.519531 395.117188 C 452.222656 392.386719 453.109375 389.710938 454.171875 387.097656 L 497.886719 277.496094 C 498.472656 276.164062 499.367188 274.992188 500.492188 274.078125 C 501.765625 273.015625 503.386719 272.460938 505.042969 272.515625 L 521.96875 272.515625 L 458.617188 427.878906 L 439.621094 427.878906 Z M 376.277344 272.515625 " fill-opacity="1" fill-rule="nonzero"/><path fill="#000000" d="M 606.941406 427.859375 L 598.375 427.859375 C 596.804688 427.925781 595.242188 427.628906 593.808594 426.992188 C 593.167969 426.597656 592.625 426.058594 592.230469 425.417969 C 591.835938 424.777344 591.59375 424.054688 591.527344 423.304688 L 589.367188 413.117188 C 586.46875 415.6875 583.648438 418.019531 580.90625 420.113281 C 578.199219 422.140625 575.285156 423.878906 572.21875 425.304688 C 569.113281 426.738281 565.851562 427.8125 562.503906 428.507812 C 558.734375 429.265625 554.902344 429.628906 551.0625 429.597656 C 546.992188 429.625 542.949219 429.019531 539.066406 427.804688 C 535.496094 426.683594 532.191406 424.847656 529.355469 422.410156 C 526.519531 419.902344 524.277344 416.796875 522.789062 413.316406 C 521.070312 409.203125 520.238281 404.773438 520.34375 400.320312 C 520.375 395.890625 521.613281 391.554688 523.925781 387.773438 C 526.820312 383.277344 530.804688 379.585938 535.515625 377.054688 C 542.058594 373.476562 549.097656 370.894531 556.402344 369.390625 C 566.777344 367.222656 577.367188 366.21875 587.964844 366.398438 L 587.964844 357.78125 C 588.460938 350.851562 586.523438 343.964844 582.480469 338.308594 C 580.464844 336.042969 577.953125 334.269531 575.144531 333.125 C 572.332031 331.980469 569.296875 331.496094 566.269531 331.707031 C 562.234375 331.597656 558.214844 332.207031 554.390625 333.503906 C 551.476562 334.542969 548.675781 335.886719 546.039062 337.507812 C 543.683594 338.988281 541.65625 340.324219 539.957031 341.519531 C 538.503906 342.628906 536.742188 343.257812 534.914062 343.316406 C 533.695312 343.339844 532.5 342.980469 531.496094 342.285156 C 530.539062 341.617188 529.742188 340.746094 529.171875 339.726562 L 525.703125 333.550781 C 531.355469 327.972656 538.015625 323.519531 545.335938 320.425781 C 552.75 317.457031 560.675781 315.980469 568.664062 316.085938 C 574.285156 315.976562 579.867188 317.007812 585.078125 319.113281 C 589.667969 321.011719 593.78125 323.902344 597.121094 327.578125 C 600.484375 331.378906 603.003906 335.855469 604.507812 340.703125 C 606.21875 346.175781 607.058594 351.882812 606.996094 357.617188 Z M 556.824219 416.050781 C 559.96875 416.082031 563.101562 415.734375 566.164062 415.015625 C 568.921875 414.363281 571.59375 413.394531 574.128906 412.121094 C 576.664062 410.832031 579.0625 409.292969 581.285156 407.519531 C 583.65625 405.625 585.882812 403.558594 587.957031 401.34375 L 587.957031 378.675781 C 580.363281 378.574219 572.777344 379.140625 565.285156 380.371094 C 560.050781 381.207031 554.949219 382.691406 550.085938 384.792969 C 546.746094 386.171875 543.816406 388.382812 541.578125 391.21875 C 539.824219 393.625 538.894531 396.53125 538.921875 399.507812 C 538.859375 402.085938 539.335938 404.652344 540.324219 407.035156 C 541.179688 409.027344 542.480469 410.796875 544.128906 412.207031 C 545.773438 413.585938 547.695312 414.59375 549.765625 415.160156 C 552.066406 415.785156 554.441406 416.082031 556.824219 416.050781 Z M 556.824219 416.050781 " fill-opacity="1" fill-rule="nonzero"/><path fill="#000000" d="M 638.414062 268.171875 L 657.726562 268.171875 L 657.726562 427.890625 L 638.414062 427.890625 Z M 638.414062 268.171875 " fill-opacity="1" fill-rule="nonzero"/><path fill="#000000" d="M 708.472656 318.042969 L 708.472656 388.074219 C 708.039062 394.992188 710.09375 401.835938 714.265625 407.371094 C 716.457031 409.75 719.160156 411.601562 722.167969 412.785156 C 725.179688 413.96875 728.421875 414.453125 731.644531 414.207031 C 737.210938 414.222656 742.695312 412.84375 747.585938 410.191406 C 752.8125 407.324219 757.480469 403.542969 761.367188 399.027344 L 761.367188 318.042969 L 780.679688 318.042969 L 780.679688 427.859375 L 769.179688 427.859375 C 767.96875 427.953125 766.769531 427.59375 765.808594 426.855469 C 764.847656 426.117188 764.195312 425.046875 763.972656 423.855469 L 762.457031 412.035156 C 757.871094 417.164062 752.4375 421.472656 746.398438 424.773438 C 740.117188 428.070312 733.101562 429.730469 726.007812 429.597656 C 720.558594 429.703125 715.148438 428.6875 710.113281 426.613281 C 705.65625 424.738281 701.691406 421.863281 698.523438 418.210938 C 695.296875 414.378906 692.910156 409.910156 691.523438 405.09375 C 689.917969 399.566406 689.132812 393.832031 689.199219 388.074219 L 689.199219 318.042969 Z M 708.472656 318.042969 " fill-opacity="1" fill-rule="nonzero"/><path fill="#000000" d="M 855.90625 316.308594 C 862.136719 316.246094 868.320312 317.367188 874.128906 319.617188 C 879.5625 321.730469 884.480469 324.980469 888.554688 329.152344 C 892.769531 333.574219 896.003906 338.835938 898.046875 344.589844 C 900.425781 351.289062 901.582031 358.359375 901.464844 365.464844 C 901.652344 367.535156 901.320312 369.621094 900.5 371.535156 C 900.066406 372.085938 899.5 372.515625 898.855469 372.78125 C 898.210938 373.046875 897.503906 373.144531 896.808594 373.058594 L 823.695312 373.058594 C 823.710938 379.199219 824.664062 385.304688 826.515625 391.160156 C 828.023438 395.878906 830.457031 400.246094 833.679688 404.007812 C 836.640625 407.394531 840.359375 410.039062 844.53125 411.726562 C 849.023438 413.480469 853.816406 414.347656 858.640625 414.273438 C 862.886719 414.363281 867.121094 413.792969 871.191406 412.585938 C 874.304688 411.625 877.335938 410.414062 880.25 408.957031 C 882.429688 407.855469 884.550781 406.640625 886.601562 405.320312 C 887.878906 404.351562 889.402344 403.769531 890.996094 403.640625 C 891.714844 403.609375 892.433594 403.761719 893.074219 404.082031 C 893.71875 404.40625 894.269531 404.886719 894.675781 405.484375 L 900.101562 412.515625 C 897.65625 415.464844 894.765625 418.007812 891.527344 420.054688 C 888.175781 422.203125 884.59375 423.964844 880.847656 425.3125 C 877.023438 426.695312 873.082031 427.734375 869.066406 428.410156 C 865.089844 429.085938 861.0625 429.429688 857.027344 429.433594 C 849.851562 429.507812 842.726562 428.195312 836.042969 425.574219 C 829.75 423.078125 824.082031 419.226562 819.445312 414.292969 C 814.574219 409.007812 810.859375 402.761719 808.542969 395.957031 C 805.828125 387.859375 804.519531 379.351562 804.683594 370.808594 C 804.621094 363.507812 805.816406 356.246094 808.214844 349.347656 C 810.40625 342.96875 813.855469 337.089844 818.355469 332.066406 C 822.855469 327.121094 828.371094 323.199219 834.519531 320.570312 C 841.277344 317.6875 848.558594 316.234375 855.90625 316.308594 Z M 856.339844 330.511719 C 852.3125 330.289062 848.28125 330.890625 844.496094 332.28125 C 840.707031 333.667969 837.246094 335.816406 834.316406 338.589844 C 828.605469 344.742188 825.097656 352.617188 824.339844 360.976562 L 884.101562 360.976562 C 884.152344 356.800781 883.53125 352.644531 882.269531 348.664062 C 881.128906 345.113281 879.285156 341.832031 876.839844 339.011719 C 874.449219 336.300781 871.476562 334.15625 868.152344 332.730469 C 864.40625 331.1875 860.382812 330.433594 856.332031 330.511719 Z M 856.339844 330.511719 " fill-opacity="1" fill-rule="nonzero"/><path fill="#000000" d="M 950.191406 410.191406 L 1017.453125 410.191406 L 1017.453125 427.859375 L 929.152344 427.859375 L 929.152344 272.496094 L 950.199219 272.496094 Z M 950.191406 410.191406 " fill-opacity="1" fill-rule="nonzero"/><path fill="#000000" d="M 1118.300781 427.859375 L 1109.734375 427.859375 C 1108.171875 427.925781 1106.605469 427.628906 1105.167969 426.992188 C 1104.53125 426.597656 1103.988281 426.058594 1103.59375 425.417969 C 1103.199219 424.777344 1102.957031 424.054688 1102.890625 423.304688 L 1100.726562 413.113281 C 1097.828125 415.6875 1095.007812 418.019531 1092.257812 420.113281 C 1089.554688 422.140625 1086.636719 423.882812 1083.566406 425.304688 C 1080.46875 426.738281 1077.203125 427.8125 1073.851562 428.507812 C 1070.085938 429.265625 1066.253906 429.628906 1062.410156 429.597656 C 1058.347656 429.625 1054.300781 429.019531 1050.417969 427.800781 C 1046.847656 426.683594 1043.542969 424.847656 1040.707031 422.40625 C 1037.875 419.898438 1035.636719 416.792969 1034.148438 413.316406 C 1032.433594 409.203125 1031.601562 404.773438 1031.707031 400.320312 C 1031.738281 395.890625 1032.976562 391.554688 1035.289062 387.773438 C 1038.179688 383.277344 1042.167969 379.585938 1046.875 377.054688 C 1053.421875 373.480469 1060.449219 370.898438 1067.75 369.390625 C 1078.132812 367.21875 1088.722656 366.21875 1099.324219 366.398438 L 1099.324219 357.78125 C 1099.828125 350.851562 1097.886719 343.964844 1093.839844 338.308594 C 1091.824219 336.042969 1089.3125 334.269531 1086.503906 333.125 C 1083.691406 331.980469 1080.660156 331.496094 1077.628906 331.707031 C 1073.59375 331.597656 1069.574219 332.207031 1065.753906 333.503906 C 1062.835938 334.542969 1060.035156 335.886719 1057.398438 337.507812 C 1055.042969 338.992188 1053.015625 340.324219 1051.316406 341.519531 C 1049.867188 342.628906 1048.105469 343.257812 1046.277344 343.316406 C 1045.058594 343.339844 1043.863281 342.980469 1042.859375 342.285156 C 1041.902344 341.617188 1041.105469 340.746094 1040.53125 339.726562 L 1037.066406 333.550781 C 1042.714844 327.972656 1049.375 323.515625 1056.695312 320.425781 C 1064.109375 317.457031 1072.027344 315.980469 1080.015625 316.085938 C 1085.632812 315.976562 1091.214844 317.007812 1096.429688 319.113281 C 1101.023438 321.011719 1105.128906 323.902344 1108.46875 327.578125 C 1111.832031 331.382812 1114.351562 335.855469 1115.847656 340.703125 C 1117.566406 346.175781 1118.40625 351.882812 1118.339844 357.617188 Z M 1068.183594 416.046875 C 1071.332031 416.078125 1074.460938 415.734375 1077.523438 415.015625 C 1080.285156 414.363281 1082.957031 413.394531 1085.488281 412.121094 C 1088.027344 410.832031 1090.421875 409.292969 1092.644531 407.519531 C 1095.019531 405.621094 1097.25 403.558594 1099.316406 401.339844 L 1099.316406 378.675781 C 1091.726562 378.574219 1084.136719 379.140625 1076.644531 380.371094 C 1071.421875 381.207031 1066.3125 382.691406 1061.457031 384.792969 C 1058.113281 386.171875 1055.179688 388.382812 1052.9375 391.21875 C 1051.191406 393.625 1050.253906 396.53125 1050.28125 399.507812 C 1050.214844 402.085938 1050.699219 404.652344 1051.683594 407.035156 C 1052.542969 409.027344 1053.847656 410.796875 1055.488281 412.207031 C 1057.140625 413.585938 1059.058594 414.59375 1061.125 415.160156 C 1063.425781 415.785156 1065.800781 416.082031 1068.183594 416.046875 Z M 1068.183594 416.046875 " fill-opacity="1" fill-rule="nonzero"/><path fill="#000000" d="M 1148.261719 427.890625 L 1148.261719 268.171875 L 1167.671875 268.171875 L 1167.671875 333.867188 C 1172.082031 328.710938 1177.394531 324.394531 1183.351562 321.132812 C 1189.589844 317.824219 1196.5625 316.164062 1203.628906 316.304688 C 1209.566406 316.21875 1215.449219 317.4375 1220.867188 319.875 C 1226.050781 322.304688 1230.558594 325.972656 1233.996094 330.558594 C 1237.871094 335.824219 1240.707031 341.785156 1242.351562 348.113281 C 1244.40625 355.984375 1245.382812 364.101562 1245.246094 372.238281 C 1245.304688 379.890625 1244.214844 387.511719 1242.003906 394.835938 C 1240.03125 401.40625 1236.847656 407.546875 1232.617188 412.941406 C 1228.457031 418.179688 1223.144531 422.382812 1217.101562 425.230469 C 1211.046875 428.074219 1204.421875 429.484375 1197.738281 429.347656 C 1191.464844 429.539062 1185.234375 428.121094 1179.671875 425.226562 C 1174.585938 422.359375 1170.164062 418.441406 1166.714844 413.730469 L 1165.75 423.703125 C 1165.613281 424.902344 1165.015625 426.003906 1164.089844 426.773438 C 1163.152344 427.542969 1161.953125 427.917969 1160.757812 427.820312 Z M 1197.296875 331.726562 C 1191.484375 331.601562 1185.746094 333.101562 1180.753906 336.058594 C 1175.65625 339.285156 1171.222656 343.441406 1167.679688 348.316406 L 1167.679688 401.390625 C 1170.605469 405.691406 1174.59375 409.164062 1179.269531 411.472656 C 1183.71875 413.460938 1188.558594 414.449219 1193.433594 414.371094 C 1197.960938 414.613281 1202.492188 413.738281 1206.613281 411.828125 C 1210.738281 409.917969 1214.320312 407.027344 1217.070312 403.40625 C 1223.117188 394.164062 1226.011719 383.210938 1225.316406 372.1875 C 1225.402344 365.992188 1224.757812 359.804688 1223.386719 353.757812 C 1222.382812 349.234375 1220.527344 344.945312 1217.910156 341.125 C 1215.691406 337.96875 1212.648438 335.480469 1209.125 333.917969 C 1205.378906 332.367188 1201.339844 331.617188 1197.296875 331.707031 Z M 1197.296875 331.726562 " fill-opacity="1" fill-rule="nonzero"/><path fill="#000000" d="M 1331.792969 336.136719 C 1331.4375 336.882812 1330.855469 337.503906 1330.144531 337.925781 C 1329.429688 338.351562 1328.609375 338.558594 1327.777344 338.519531 C 1326.472656 338.449219 1325.207031 338.042969 1324.097656 337.332031 C 1322.726562 336.542969 1321.035156 335.65625 1319.046875 334.679688 C 1316.757812 333.582031 1314.382812 332.675781 1311.941406 331.96875 C 1308.773438 331.074219 1305.480469 330.652344 1302.179688 330.714844 C 1299.203125 330.675781 1296.242188 331.097656 1293.390625 331.96875 C 1290.988281 332.699219 1288.726562 333.855469 1286.71875 335.386719 C 1284.960938 336.738281 1283.523438 338.457031 1282.492188 340.421875 C 1281.515625 342.351562 1281.011719 344.492188 1281.023438 346.65625 C 1280.9375 349.222656 1281.8125 351.730469 1283.464844 353.691406 C 1285.28125 355.71875 1287.472656 357.375 1289.914062 358.574219 C 1292.851562 360.050781 1295.894531 361.265625 1299.03125 362.210938 C 1302.429688 363.261719 1305.925781 364.378906 1309.5 365.570312 C 1313.082031 366.761719 1316.566406 368.078125 1319.964844 369.527344 C 1323.25 370.898438 1326.320312 372.726562 1329.082031 374.949219 C 1331.765625 377.128906 1333.964844 379.84375 1335.53125 382.921875 C 1337.25 386.445312 1338.089844 390.332031 1337.972656 394.25 C 1338.023438 399.0625 1337.09375 403.835938 1335.25 408.28125 C 1333.464844 412.566406 1330.722656 416.386719 1327.226562 419.453125 C 1323.414062 422.753906 1318.988281 425.277344 1314.199219 426.886719 C 1308.476562 428.785156 1302.457031 429.703125 1296.414062 429.597656 C 1289.296875 429.699219 1282.230469 428.425781 1275.585938 425.855469 C 1269.78125 423.617188 1264.425781 420.367188 1259.75 416.261719 L 1264.308594 408.890625 C 1264.820312 408.015625 1265.523438 407.273438 1266.363281 406.71875 C 1267.332031 406.175781 1268.421875 405.914062 1269.511719 405.964844 C 1271.019531 406.03125 1272.457031 406.5625 1273.636719 407.480469 C 1275.074219 408.496094 1276.832031 409.617188 1278.898438 410.839844 C 1281.273438 412.207031 1283.785156 413.332031 1286.382812 414.195312 C 1289.945312 415.300781 1293.664062 415.8125 1297.390625 415.710938 C 1300.738281 415.773438 1304.082031 415.277344 1307.257812 414.242188 C 1309.855469 413.402344 1312.25 412.058594 1314.316406 410.289062 C 1316.132812 408.699219 1317.5625 406.71875 1318.488281 404.5 C 1319.394531 402.296875 1319.859375 399.9375 1319.839844 397.558594 C 1319.945312 394.835938 1319.085938 392.167969 1317.398438 390.023438 C 1315.621094 387.90625 1313.417969 386.167969 1310.945312 384.917969 C 1308.011719 383.40625 1304.941406 382.175781 1301.773438 381.242188 C 1298.335938 380.1875 1294.832031 379.082031 1291.257812 377.929688 C 1287.683594 376.78125 1284.179688 375.460938 1280.734375 373.972656 C 1277.421875 372.570312 1274.332031 370.6875 1271.558594 368.386719 C 1268.855469 366.109375 1266.65625 363.28125 1265.109375 360.097656 C 1263.390625 356.347656 1262.558594 352.25 1262.675781 348.121094 C 1262.675781 343.953125 1263.566406 339.828125 1265.285156 336.03125 C 1267.050781 332.125 1269.636719 328.648438 1272.871094 325.839844 C 1276.484375 322.753906 1280.636719 320.382812 1285.125 318.855469 C 1290.476562 317.039062 1296.085938 316.15625 1301.726562 316.25 C 1308.378906 316.144531 1314.992188 317.304688 1321.199219 319.664062 C 1326.734375 321.804688 1331.804688 324.988281 1336.121094 329.046875 Z M 1331.792969 336.136719 " fill-opacity="1" fill-rule="nonzero"/></svg>